<svg xmlns="http://www.w3.org/2000/svg" width="374" height="374" fill="none">
	<mask id="a" width="374" height="374" x="0" y="0" maskUnits="userSpaceOnUse" style="mask-type:alpha">
		<rect width="374" height="374" fill="#C4C4C4" rx="16" />
	</mask>
	<g fill-rule="evenodd" clip-rule="evenodd" mask="url(#a)">
		<path fill="#AFD0FF"
			d="M216.4 86c.5-18.8-23.3-50.8-62.2-45.2-42.6 6.1-73.5 55-67.3 109.8l.2 2c3.8 34.2 5 61.1-1.5 99-4.9 28.4 29.9 91.1 106.7 81.2 76.8-10 119-102 82.7-145.5-48.4-58-59.7-60.2-58.6-101.3Z" />
		<path fill="#FCFCFC"
			d="M170.8 140.7c-1.3-3.4-3.8-6.1-6-9a53.8 53.8 0 0 1-10.2-27c-.5-5.2 1.3-30.4 10.7-36.4-4.7-1.4-9.4-2.9-13.2-5.9-3.8-3-6.5-8-5.5-12.7 1.5-7.2 10.9-10.3 17.8-8 7 2.5 12 8.4 16.6 14.1 4.5-.3 5.6-6.9 9.6-8.7 2.8-1.2 6 0 8.6 1.4 7.7 4.2 15 9.8 19 17.5 4 7.7 4.4 17.8-.8 24.8 2-2.1 5.8.6 5.6 3.4-.2 2.9-2.7 5-5.2 6.5-2.4 1.6-5 3.2-6 6a53.2 53.2 0 0 1-11.2 18.4c-3 3.2-6.4 6.1-8.7 10-2.2 3.8-3 8.9-.3 12.5 3.4-3.7 9.4-4.8 13.9-2.4 4.5 2.3 7.1 7.7 6.2 12.7 6.2.5 11.9 5.5 13.2 11.6 12.7 12.8 23 28 30.5 44.4 4.7 10.4 8.1 21.4 11.6 32.3 1.4 4.3 2.8 8.7 2 13.2-1.5 9-11.3 14.2-20.3 15.3-11.3 1.3-23-2-32-9-4.7 14.9-9.5 31-4 45.7 1.1 3.1-1.2 6.7-4.2 8-3 1.5-6.6 1.3-9.9 1l-56-3.8c-3.9-.3-9.2-2.6-7.8-6.3 3-8.2 4-17.2 2.5-25.8-1.1 5.8-3 11.5-5.7 16.8 0 0-9.3 19.1-18.6 9.3a61 61 0 0 1-4-35c1.6-12 4.9-23.5 6.1-35.4 1.3-11.5.6-23.2 1.8-34.8a54.8 54.8 0 0 1 12.4-32l18.8-20.2c1.6-1.8 3.4-3.7 5.7-4.6 2.4-.8 5.4-.3 6.6 1.9 1.5-1.8 3.2-3.8 5.5-4 2.4-.3 4.8 2.6 3.3 4.4 2.7-2.5 2.9-6.8 1.6-10.2Z" />
		<path fill="#F5F5F5"
			d="M220.6 169.5c12.7 12.8 23 28 30.5 44.4 4.7 10.4 8.1 21.4 11.6 32.3 1.4 4.3 2.8 8.7 2 13.2-1.5 9-11.3 14.2-20.3 15.3a42.9 42.9 0 0 1-31.2-9.6c-4.8 14.8-10.3 31.7-4.8 46.3.5 1.3 1.7 2.8 1.2 4.1-.8 1.8-3.7 3.2-5.4 4-.5.2.7-4.2.7-10.6-.1-10.9-4.7-48.8 6-46.3 26.4 6.1 46.2 5.2 46.6-1.3 2.1-33.1-38.2-98-37-91.8Z" />
		<path fill="#404040"
			d="M167.8 140.7c-1-2.6-2.8-5-4.6-7.2l-1.4-1.9a53.8 53.8 0 0 1-10.3-27c-.4-5 1.4-30.3 10.8-36.3-4.7-1.4-9.4-2.9-13.3-5.9-3.8-3-6.5-8-5.4-12.7 1.5-7.2 10.9-10.3 17.8-8 7 2.5 12 8.4 16.6 14.1 2.5-.2 4-2.2 5.4-4.4 1.2-1.7 2.4-3.5 4.2-4.3 2.8-1.2 6 0 8.6 1.4 7.7 4.2 14.9 9.8 19 17.5 4 7.7 4.4 17.8-.8 24.8 1.9-2.1 5.8.6 5.6 3.4-.2 2.9-2.8 5-5.2 6.5l-.4.3c-2.3 1.5-4.7 3-5.7 5.6a53.2 53.2 0 0 1-13.6 21c-2.3 2.3-4.5 4.6-6.2 7.4-2.2 3.9-3 9-.4 12.6 3.5-3.7 9.5-4.8 14-2.4 4.5 2.3 7.1 7.7 6.2 12.7 6.2.5 11.9 5.5 13.2 11.6 12.7 12.8 23 28 30.5 44.4 4.7 10.4 8.1 21.4 11.6 32.3 1.4 4.3 2.7 8.7 2 13.2-1.5 9-11.3 14.2-20.3 15.3-11.3 1.3-23-2-32-9-4.7 14.9-9.5 31-4 45.7.4 1.3.3 2.7-.2 4a47 47 0 0 1-3.2-25c1-8.4 3.4-16.6 5.9-24.7.4-1.4-1.7-1.8-3.1-2-2.5-.3-4.3-2.4-5.9-4.4l-6.3-8c-4-5.2-8.8-10.7-15.3-11.7-1.8-.3-3.6-.2-5.5 0h-3.3c-4.3 0-8.6-1.5-12.1-4-.9-.6-1.7-1.4-1.9-2.4-.2-1 .7-2.1 1.7-1.9-3-1-6-2.3-8.6-4.1-.4-.4-1-.7-1.2-1.3-.5-1.1.4-2.5 1.5-3 1.2-.5 2.5-.3 3.8-.1-1.5-.3-3-.6-4.3-1.5-1.3-.9-2.2-2.5-1.8-4 .4-1.4 2.5-2.3 3.6-1.3-.5-1.5.6-3.2 2-3.8 1.4-.7 3-.7 4.6-.6 6.6.4 13.2 1.1 19.7 2.1l-1-13.4c0-.5 0-1-.3-1.5-.4-.6-1.1-1-1.8-1.2-13.2-4.9-26.9-8.8-40.7-11.6l3 58.2c.2 1.8.7 4 2.4 4.3 11 1.8 21.7 4.9 32 9.1 1.4.6 2.5-1.4 2.7-3l2.6-15.1c.4 6.4-.5 13-2.6 19 1.6.4 2.5-1.8 2.8-3.4l2.4-15c.4 5.3-.1 10.7-1.4 15.8-.3 1.2-.8 2.5-1.9 3-1 .5-2 .2-3 0l-34.7-10.2c-.5-.1-1.1-.3-1.5-.7-.6-.6-.7-1.5-.7-2.4l-3-52.4c-.1-3.4 0-6.8.3-10.2l.9-17.4a157 157 0 0 0-3.8 60.8c2.4 20.3 7.6 40.1 13.2 59.8-2.4-4.1-4.1-8.5-5.1-13.2-2.8 4-5.7 8.5-4.9 13.3 1.3 8 .5 16.4-2.4 24-.7 1.7.5 3.7 2.1 4.5 1.7 1 3.6 1 5.5 1l24.6.3a2 2 0 0 1 .5-2.9c-.3 2.7 3.2 4 5.8 4.3 12.6 1.7 26 3.3 37.6-1.9a8.2 8.2 0 0 1-4 3.9c-3 1.4-6.5 1.2-9.8 1l-56-4c-3.9-.2-9.2-2.5-7.9-6.2 3.1-8.2 4-17.2 2.6-25.8-1.1 5.8-3 11.5-5.7 16.8a64 64 0 0 1 8.7-25.1c3.2-5.5 1.3-12.4-.3-18.5-8-29-9.2-59.7-3.6-89.2-12 8.7-17 24.2-18.4 39-.6 6.2-.7 12.4-.8 18.6-.1 8.6-.3 17.3-1.7 25.8-.7 3.8-1.6 7.7-2.6 11.5-1.5 6-3 12.1-3.4 18.3-.6 9.7 1.5 19.4 3.5 28.9a61 61 0 0 1-4-35c.8-5.5 1.8-10.9 3-16.3 1.2-6.3 2.4-12.6 3.1-19 .6-5.9.8-11.7 1-17.6 0-5.8.2-11.6.8-17.3a54.8 54.8 0 0 1 12.4-32l18.8-20.2c1.6-1.8 3.4-3.7 5.7-4.6 2.4-.8 5.4-.3 6.6 1.9 1.5-1.8 3.2-3.8 5.5-4 2.4-.3 4.8 2.6 3.3 4.4 2.7-2.5 2.9-6.8 1.6-10.2Zm41.6 174.9.1-.3v.2l-.1.1Zm55.3-61.1c.6 5.2-2.2 10.6-6.4 13.8a27.2 27.2 0 0 1-14.9 5c-11.2.8-22.6-3-31-10.3 6.4-6.7 6.8-18.4.7-25.4a53.1 53.1 0 0 1 16.3-5.5c5.7-.7 12 .9 15.7 5.2l1.8 2.4c.6 1 1.3 2 2.2 3-.8-4.8-4.5-8.8-9-10.7a23.7 23.7 0 0 0-14.1-.8c-4.7 1-9.2 3-13.6 5-.8.4-1.4-.8-1.5-1.7l-.8-5.2c-.4-2.2-.3-5 1.7-5.8 1.5-.6 1.1-3 .1-4.2l-.5-.7c-1-1-1.9-2.2-1.6-3.6 2.5-14.3 5.1-28.6 9.7-42.4.1-.4.3-1 .7-1.1.5-.3 1.2 0 1.7.2a28 28 0 0 1 9.4 11l2.8 4.6c1.5 2.2 3.2 4.2 5 6.3l3.7 4.6c7.3 9.8 11 21.6 14.6 33.5 1.6 5.4 3.2 10.8 5.3 16v.3l.2.3c.8 2 1.6 4 1.8 6.2Zm-57.5-31c1 0 2.1 0 3-.5 1-.5 1.6-1.6 1.2-2.6-.4-.9-1.6-1.2-2.6-1.1-.6 0-1.1.3-1.6.5l-1.3.3c-2 .5-4-.1-6.1-.7-2.2-.7-4.5-1.4-6.6-.6 1.4-2.3 1.3-5.2 1.2-7.8v-.5a87 87 0 0 1 9.1-41.4 11.9 11.9 0 0 0-4.8 8.1c-.2 1-.3 1.8-.7 2.6-1.6 3.2-6 3.5-9.6 3.2-3-.3-6-.7-8.4-2.4-1.2-.9-2.2-2-3.1-3.2-1.3-1.5-2.6-3-4.4-3.9-3-1.3-6.1-.2-9.4 1-2.9 1-5.8 2-8.7 1.2-1.6-.4-2.7 1.6-3.2 3.2l-2 6.9c-1-3.8.2-8 3-10.8-1.2-.8-1-2.4-.6-4 .3-1.6.7-3.2-.6-4-3.9-2-4.6-7.2-5-11.6-4.8 1.8-7.6 7.1-8.5 12.2-.5 3-.5 6.1-.4 9.2 0 2.1 0 4.3-.2 6.4a308 308 0 0 1 43.3 11.8 5 5 0 0 1 2.4 1.4c.6.7.7 1.8.8 2.8a33 33 0 0 1-.9 14.8v-14.6c0-.8-.1-1.8-.9-2-1.2-.4-1.7 1.4-1.6 2.7l.8 10.8c.1 1.5.4 3.1 1.5 4l-21.3-2.1c-2.3-.3-5-.3-6.2 1.5.2 1.7 2.3 2.5 4 2.8l13.6 2.9c-4.3.8-8.7 0-12.8-1.6l-.9-.4c-1.3-.5-2.5-1-3.9-1.2-1.7-.2-3.6.2-4.6 1.6 6 4 13.2 6.6 20.4 7.3 0 .8-1 1-1.9 1-2-.2-4-.8-6-1.4l-2.7-.8c-3-.7-6.2-1-8.8.6a47 47 0 0 0 20.9 7.9l-12.2-.3c2.2 3.8 7 5.3 11.4 5.5h4c3 0 6.2 0 9.1 1 5.4 1.7 9.2 6.3 12.8 10.6l7 8.4c.9 1.1 2.7 1.2 4 .6a7.5 7.5 0 0 0 3-3.2 13 13 0 0 0 1.9-8.4c-.5-3-2.5-5.7-5.3-6.5-4.9-1.4-8.3-5.7-10.7-10.2l-2.3-4.7c-1.4-3-2.8-6-4.7-8.7l-2-2.3a19.8 19.8 0 0 1-4-6.1c4.2 4 7.6 8.5 10.3 13.4.3.6.6 1.2 1.1 1.4.4.2.8.2 1.2.2l10.5-.1ZM206 101.9c1-.1 1.8-.9 2.5-1.6l3.4-3.4a90.7 90.7 0 0 1-29 40.6c-2.7 2-6 3.9-9.4 3.3a11 11 0 0 1-4.7-2.4c-3-2.3-5.3-5.3-7.2-8.5-5.6-9-8.7-19.4-8.7-30A52.6 52.6 0 0 1 163 69.4h1.1c12.6 4 25.2 8.2 37.5 12.8 2 .7 2.8 3 3.2 5.1.7 4.2.5 8.6-.6 12.8-.3 1 .9 1.8 1.8 1.7Zm-8.2-31.6c1.5 0 2.5 2 1.7 3.2-.9 1.3-3 1-3.6-.4-.7-1.5-2.2-2.4-3.8-3.2l-.4-.2c-5-2.7-9-7-12.8-11.4l-3-3.3-6.2-6a30 30 0 0 0-7.8-5.3 12.8 12.8 0 0 0-9.1-.6c1.3 0 2.3 1.5 2 2.8-.5 1.3-2.2 1.9-3.3 1.2-1.2-.8-1.3-2.6-.3-3.5-3 .9-5.6 3.3-6.6 6.3-.3.6-.4 1.2-.2 1.8 0 .3.3.6.5 1 .3.3.6.7.6 1.2-.1 4 3.8 7.6 7.7 7.2.8-.1 1.1.7 1.4 1.5.2.3.3.7.6 1 .3.6 1 .9 1.6 1.2 6 2.8 12.4 5.1 19 7 .7.2 1.7.3 2-.5.4-1 1.7-1.4 2.7-1 1 .4 1.5 1.6 1 2.6 0 .4.5.8 1 1l22 8c-.4-1.7 1.7-3.3 3.1-2.5 1.5.8 1.4 3.4-.2 4l8 4 1.5-11.8c0-.6-.2-1.4-.7-1.2-1 .3-2.1-.3-2.5-1.3-.4-1 0-2.1 1-2.6.6-.4.9-1.3.7-2-.1-.9-.6-1.5-1-2.2A61.7 61.7 0 0 0 195 49.4c-2-1.1-4.4-2.1-6.5-1.2a8 8 0 0 0-2.8 2.8l-.4.5c-1.6 2.2-3.6 4-5.8 5.5l7 7.1c-.5-1.2.4-3 1.7-3.2 1.4-.2 2.8 1 2.7 2.5-.2 1.3-1.8 2.4-3 1.9 2.9 2.4 6.1 4.9 9.9 4.9Zm9 97c1 0 2.1-.6 2.6-1.6.4-1 .2-2.2-.6-3-1-.9.2-2.7 1.5-2.8 1.3-.1 2.6.7 3.6 1.5l5.2 4c.6.4 1.3 1 1 1.8a200 200 0 0 0-11.5 49.2c0 1.3-1.4 2.3-2.8 2.6-1.3.2-2.7-.1-4-.4l-4.7-1.3a2 2 0 0 1-1-.4c-.3-.3-.3-.8-.4-1.3a94 94 0 0 1 9.6-47c.3-.7.8-1.4 1.5-1.3ZM196.3 157c-1.3-1-1-3.3.5-4-3.6.4-7 2-10.3 3.7a31.2 31.2 0 0 1-10 3.5 7.2 7.2 0 0 1 2.8 6.7c-.3 2.6-1.7 4.9-3.5 6.7 1.5 3 4.2 5.5 7.3 7 1 .4 2.3.8 3.5.4l.8-.3c1-.4 2-.9 2.5 0 1 1.5 3.3 1.1 4.8.2 1-.6 2-1.5 2.5-2.7.4-1.1.2-2.6-.9-3.3a2.1 2.1 0 0 1-.6-2.7c.5-.9 1.8-1.3 2.7-.8.8.3 1.6-.6 2-1.3 1.2-1.8 2.8-3.2 4.8-4-.8-1.2-.7-2.8.2-3.9-2.3-1.7-4.2-4-5.4-6.7-.2 1.6-2.4 2.5-3.7 1.5Zm-31.2-6.1v.5c-.2 1-.1 2 .6 2.5 2.7-3.3 4.3-7.5 4.4-11.7 0-.8 1.3-.7 2.1-.4 2.4.8 5 .4 7.3-.6a30 30 0 0 0 6.3-4.1c-.6 3.8-.1 7.8 1.4 11.4l-7.8 5.8c-.3.3-.6.8-.2 1 3-1 5.4-3 7.9-4.9l.2-.1c2.5-2 5.2-4 8.3-4.8 3-.8 6.8-.1 8.7 2.4 1 1.2 1.5 2.8 2 4.3l1.3 4.7c.3 1 .6 2.1.2 3-.5 1-2 1.5-2.6.6l-2.8-4c-1.4-2-2.9-4-5.2-4.6-2.4-.7-5 .5-7.3 1.6-4 2-8.1 3.8-12.4 5.4-1.2.5-2.7 0-4-.4-1.7-.5-3.2-1-4.5-.1-.5.3-1.1.1-1.7 0-3.7-1.6-7-4-9.6-7.2l5.4-3.5c.7-.5 1.7.2 2 1 .2.8 0 1.5 0 2.2Zm4 20.7a8.7 8.7 0 0 1-3-8.5c.2-.8-.6-1.4-1.3-1.8-.6-.5-1.3-1.4-.8-2 .3-.3 0-.8-.4-1l-6.6-5.1a6.8 6.8 0 0 1-2-2.2c-.8-1.6-3-2.3-4.6-1.5-2.3 1.1-2.7 4.2-2.7 6.8 0 .6.2 1.4.8 1.4 1.5 0 2.3 2.5 1 3.4-1.2 1-.3 2.9.9 3.8l.8.6c1 .7 2 1.4 2.3 2.5.2.9-.1 1.8-.4 2.7-.3 1-.7 2.2 0 3 .7 1.2 2.4 1 3.7.8 4.1-.8 8.2-1.7 12.2-2.9Zm29 53.4a54.2 54.2 0 0 1 9.7.2c.3.2.3.6.4 1 .2 3.2.8 6.3 1.7 9.3-.1.4-.5.5-1 .6-.2 0-.5 0-.7.2-.7.5-.5 1.6 0 2.3l.7.6 1 1.3a23 23 0 0 1-13.6-13.9c-.1-.4-.3-.8-.1-1.2.1-.4.7-.6 1-.3v.5l.5 3c0 .5.7.5 1 .1.2-.3.1-.8 0-1.2l-.6-2.5Zm-20.6-61a7.3 7.3 0 0 0-5.8-4.7c-.9 0-2 0-2.6.7a6.7 6.7 0 0 0-1.8 5.8 9 9 0 0 0 3.2 5.3c1.2 1 2.9 1.8 4.3 1.1.4-.2.8-.5 1.1-.9a7.3 7.3 0 0 0 1.6-7.2Zm28.4-65c.7-4.8 1.3-10-1-14.4-.1-.3-.3-.7 0-1l7.2 3.6c.5.3 1.2.8 1 1.4-.4.7-.4 1.4-.5 2.2v1c-.3 1.8-1.3 3.6-2.6 5a30.1 30.1 0 0 1-4.2 3.8v-1.5Zm7.3 140.4c-.9-1.1-2-2.3-3.4-2.4-.6 0-1.3.5-.9.9 3.5 3.3 5.8 8 5.3 12.8-.4 4.7-4 9.3-8.7 10 1.4 1.7 4 1.8 6 .7 1.8-1 3-3 3.8-5a18.5 18.5 0 0 0-2.1-17Zm-74.3-54.9a127 127 0 0 1 15.5 3.8l13.9 4c4.2 1.2 8.5 2.5 12.3 4.7a21 21 0 0 1-5.3-1.1l-9.1-3c-10-3.2-19.9-6.4-30.2-7.8.7-.8 2-.7 3-.6Zm76-92.4c-.7.8-1.1 1.8-1.4 2.9l-.1.9a11.5 11.5 0 0 1-.7 2.5c-.3.6-.5 1.2-.4 1.8a7 7 0 0 0 6.3-5.5c.2-1 0-2.2-.7-2.8-.8-.7-2.2-.5-3 .2Zm-15.3-38.8c.3 1-.2 2.2-1.2 2.6-.9.4-2.1 0-2.6-1-.6-1 0-2.4 1-2.8 1-.5 2.4 0 2.8 1.2Zm-35.8.9c0-.9-.5-1.8-1.3-2.1-1-.5-2.4.1-2.8 1.2-.4 1 .2 2.4 1.2 2.8 1.3.4 2.8-.6 3-1.9Zm40.7 9c0 1.1 1 2.1 2.2 2.1 1.2 0 2.3-1.1 2.2-2.3-.1-1.2-1.2-2.1-2.3-2a2.3 2.3 0 0 0-2.1 2.2Zm-32.2 1.3c-.8 1-2.6 1-3.4 0-.8-1-.4-2.8.7-3.3 1.2-.6 2.8.1 3.1 1.4.2.6 0 1.4-.4 1.9Zm-6.6 17c-.7 1.1-.8 2.5-.4 3.7.2.5.4.9.8 1.2 1.1 1 3 .6 4-.6s1.1-2.8.8-4.3c0-.6-.3-1.3-.8-1.6a2 2 0 0 0-1.2-.3c-1.3.1-2.5.9-3.2 2Zm23 11.1c-.4-.4-.6-.9-.8-1.4-.6-2 .2-4.2 1.9-5.3.8-.5 1.7-.7 2.6-.4 1 .3 1.6 1.5 1.8 2.6.3 1.5 0 3.3-1.2 4.4-1.2 1-3.2 1.2-4.3.1Zm-28.8 21.6.2-3c0-.3.3-.5.7-.6l.2 7.1c-1-.7-1.2-2.2-1.1-3.5Zm38.8-10.3a4.5 4.5 0 0 0-2.7-3.2c-.3 0-.3-.5 0-.6.1-.2.4-.1.6 0 1.4.2 2.2 1.5 2.8 2.7.1.3.3.7.1 1-.1.4-.7.4-.8.1Zm-24 209.5c0-.3-.4-.4-.7-.6-5-1.8-10.4-2.8-15.7-2.8-.7 0-1.6 0-2 .7.4.3 1 .3 1.5.3 5.6 0 11.3 1 16.5 3 .3.2.6-.3.5-.6Zm2.8-218-1 .6-1 .8c-.6.5-1 1.4-.7 2.2.3 1 1.6 1 2.6.9h1.2c.3 0 .6.4.5.8-.1.2-.4.3-.6.4-1.5.6-3.3.4-4.4-.8-1.1-1.1-1.2-3.2 0-4.2l5-3.8c0 1.2-.7 2.3-1.6 3Zm18.8 9.8c.3 1.7-.1 3.5-.8 5-2.6 7.1-9 12.6-16.3 14.3-3 .7-6.2.7-8.9-.8-2.6-1.5-4.3-4.9-3.1-7.7 1.3-3.3 5.5-4.2 9-4.3h1c3.3 0 6.8 0 9.2-2.3.9-.8 1.5-1.7 2-2.7.6-.9 1.1-1.7 1.8-2.4 1.4-1.6 4.3-2.3 5.5-.6.3.4.5 1 .6 1.5Zm-1.5 2.6c.4-1.4.2-3.4-1.2-3.6-.6-.1-1.1.1-1.5.4-1.1.8-1.8 2-2.6 3.1-.5 1-1 1.8-1.8 2.6-2 1.9-5 2.2-7.8 2.5l-5.3.4c-1.4.2-2.8.3-4 1a4.9 4.9 0 0 0-1.5 6.6c1.5 2.3 4.7 2.8 7.4 2.6 8.5-.9 16.1-7.4 18.3-15.6Zm3 107.6a1.2 1.2 0 0 1-1.2-.6c-.2-.6.1-1.4.7-1.6.6-.2 1.4.2 1.5.9.1.6-.3 1.3-1 1.3Zm9.9.1c-.3-.2-.5-.3-.8-.3-.7 0-1.3.8-1 1.5.2.6 1 1 1.6.6.6-.4.7-1.3.2-1.8ZM187 165.7c-.7-.8-.7-2.2.1-3 .8-.7 2.2-.7 3 0 .8.9.8 2.4 0 3.2-.8.8-2.4.7-3.1-.2Zm-9.3 6.9c-.2.4-.2.9 0 1.3.3 1.3 2 2 3.2 1.2 1-.8 1.1-2.7 0-3.5-1-.8-2.8-.3-3.2 1Zm-18.9-3.3c-.2.9-1 1.5-1.8 1.5a2.2 2.2 0 0 1-2.3-2.4 2.2 2.2 0 0 1 2.8-1.7c1 .4 1.6 1.6 1.3 2.6Z" />
	</g>
</svg>
