<svg xmlns="http://www.w3.org/2000/svg" width="294" height="237" fill="none">
	<path fill="#C8A0FB" fill-rule="evenodd"
		d="M169.2 236.4c35.2 0 66-26.2 48.7-61.7-17.3-35.6 47-34.4 66-59 23-30 16.3-157-131.7-79.5-23.8 12.4-84.7-12.8-104.9-.3-23.8 14.7-57.2 44.8-23.8 75.7 16.5 15.2-42.6 54.6-16.7 90 25.3 34.4 43 1.6 81.4 8.6 38.5 7 54.9 26.2 81 26.2Z"
		clip-rule="evenodd" />
	<path fill="#FCFCFC"
		d="M128.4 174.5s8-3.8 11.1-6.4c3-2.7 6.8-9.2 6.8-9.2s41.3 29.8 68.2 25.5c6.2-1 18.3-5 19-12.4 2.1-19.8-27-24.9-20.6-35 3.9-6 16 3 16 3l50 24.7s-17.3 42.6-59.3 44.3c-51.6 2-91.2-34.5-91.2-34.5Z" />
	<path fill="#FCFCFC" fill-rule="evenodd"
		d="M88.7 7.7c-.4-.1-3-3.2-6.2-3.8-1.4-.2-.1 1.6-1.7 1.6-4.8 0-12.5-.8-14 0-1 .7 1.3 2.8 0 3-12 .9-30.5 13-34.5 18.8-1.3 1.9 9-1.3 7.4-.3-1.9 1-3.9 7.8-5.1 13-.9 3.6-1.4 8.2-1.6 13.3-.1 4.3 0 5 .5 7.4.8 2.7 1.3 3.5 2.3 3.1.3-.1.5-.6.5-1.5 0-.6.4-2.7.8-4.6l.9-3.3.3 1.4c.4 1.6 3 6.5 5.3 10.2.2.1.7-.1 1.2-1.3.4-1 .2-2.7 1-4.6 1.7-4.1 5-9.6 9-14 5.7-6.3 7.6-13.7 13-19.7 10-11.1 22.7-18 21-18.7Z"
		clip-rule="evenodd" />
	<path fill="#F5F5F5" fill-rule="evenodd"
		d="M39.8 28.5c-1.6 1.3-4 11.8-4 12a70.5 70.5 0 0 0-.9 18.5c.9 2.3 3.2-6.2 3.2-6.2s3.5 9.1 6.7 11.7c.1 0-3.7-11.4-5-18-1.6-8.9 1-18.8 0-18Z"
		clip-rule="evenodd" />
	<path fill="#FCFCFC" fill-rule="evenodd"
		d="M100 212.8c3-.7 8-3 10-3.7 2-.8 7.9-9.2 10-18.6 1.5-7 2.3-16.9 1.4-18.5 0-.3-.6-4.8.7-3.3 2.8 3.3 6.1 8.4 16.6-.8 2.9-2.5 6.7-5.7 5.7-8.6-2.8-8-15-24.1-16.8-25.3-2.2-1.5-13.3-.2-30-5.1-18.8-5.6-26.6-22-34-19.8a58.6 58.6 0 0 0-23.8 19c-17 31.6 3.6 53.8 8.2 60.2l4.6 2 .1 4 .3 2.5c.4 4.9.5 5.3 2.7 7a63 63 0 0 0 44.3 9Z"
		clip-rule="evenodd" />
	<path fill="#F5F5F5" fill-rule="evenodd"
		d="m54.4 192.8.2 2.6c.4 4.8.5 5.3 2.7 6.9a49 49 0 0 0 14 6.6c4 1.3 8.1 2.3 12.1 2.8 4.6.6 14.4.4 18.2-.4 1.9-.4-13.4-12.4-22.4-9-7 2.6-23.3-17.3-16.6-22.5 7.4-5.8-6.2-28.7-6.7-33.7-.4-5-2.1-6.2-2.2-6l.1 2.2c.6 6.2.6 50.5.6 50.5Z"
		clip-rule="evenodd" />
	<path fill="#FF9A9A" fill-rule="evenodd"
		d="M52.7 144.7c.7-.2 1.3.3 1.5 1 2.3 12 12.3 20.3 30.2 24.6 18 4.3 30.3 4.1 36.7-.5.6-.4.2 3-.2 3.2a55.1 55.1 0 0 1-35.7 3 44.6 44.6 0 0 1-33.4-30c-.2-.6.3-1.2 1-1.3ZM43.6 122.7c.6-.3 22.3 24.6 52.1 30.2 29.8 5.6 37 2 38.2-5.6a1.2 1.2 0 1 1 2.4.3c-1.5 9.8-15.3 12.1-41 7.7-25.4-4.3-42.8-14.6-52.1-30.9-.4-.6-.2-1.3.4-1.7Z"
		clip-rule="evenodd" />
	<path fill="#404040" fill-rule="evenodd"
		d="M168.6 121.4c-.8-.3-1.6-1-2.2-1.7l-1-1.1 3.4-3.3A69 69 0 0 0 181.2 99a68.6 68.6 0 0 0 4.7-11.5 4.8 4.8 0 0 1 2.5-2.6c1.6-.9 3.4-1.2 4.2-.7 1.5 1 1.5 4.2 0 9.6-1.7 6-4 10.3-8.5 16.5l-3 4a20.9 20.9 0 0 1-6.7 6.5c-2.2 1.2-3.5 1.4-5.8.6Zm22.6-2.9 2.2 1 11.8 5.7 22.8 11c.1 0 .7-1.4.9-3 .3-3.4 1.4-8 2.8-11.3.6-1.4 1.1-3.2 1.1-3.4l-1.3-.6c-1-.4-2.5-1-4-1.8a769.6 769.6 0 0 1-25.3-12.7c-2-1-2.3-1.2-2.3-.4 0 1-2 5.3-3.4 7.6a104 104 0 0 1-3.4 5.2l-2 2.7Zm36.3 12c.9.5-.7 1.3-1 1.4-2.3.2-4.9-.2-7-1.5-1.1-.8-10-5.7-15.8-8.9-2.6-1.5-4.7-2.6-5-2.9-1.4-.7-2.7-1.6-2.9-1.8-.6-.9 0-1.3 1.8-1.1 1.2 0 28 13.7 29.9 14.8Zm-127.4 82c2.4-.5 6.1-2 8.5-3l1.5-.7c2-.8 7.9-9.2 10-18.6 1.5-7 2.3-16.8 1.4-18.5-.5-1 2.7 2.3 5 4.7l1.8 1.8c13.6 13.6 34 24.5 55.1 29.6 10.5 2.5 18 3.4 28 3.4 17 0 30.3-3.3 42.4-10.6l1.6-1A46 46 0 0 0 269 188c7.7-8.7 14.6-28.8 16.9-35.8a123 123 0 0 0 3.4-18.7 9 9 0 0 0-3-7.2c-3.1-3-7.3-4.1-10.8-2.8l-1.6.6-.5-1.6c-.7-2.5-2.2-4.5-4.6-6-3.4-2.3-4-2.5-7-2.5-2.4 0-3 .1-4.6.8l-1.8.9-.4-1.2a13 13 0 0 0-5-6.5 12 12 0 0 0-6.5-.5c-4.4.8-7.6 2.9-8.8 5.7-.4.9-.9 1.6-1 1.6a99 99 0 0 1-13.8-5l-3.5-1.6c-13.2-5.8-16-7-15.8-8.7a6 6 0 0 0-.2-3.2c-.7-2-1.4-2.5-3.6-2.5-1 0-1.4 0-1.5-.2v-.7c1-4.8 1-7.5 0-9.3-.8-1.1-1.6-1.6-3.6-1.9-1.1-.1-1.6 0-2.9.6-.8.5-1.6.8-1.6.7 0 0 .1-1.7.5-3.8a66.4 66.4 0 0 0-6.2-42.3 57.6 57.6 0 0 0-35.9-31.3c-7.8-3-13-5-25.5-5-14 0-18.7 2-28 6.3-1.3.5-2.4.9-2.5.8A41.1 41.1 0 0 1 85.5 5c-2.7-1.8-4.4-2.6-5.2-2.4-1 .3-1 1 0 1.5.4.1.9.6 1 1.2.5 1.1 1 1.2 1.2.3.2-.4.3-.6.4-.5l.4.1 2.2 1 3 1.5c.8.3.5.5-2.4 2.2a65.1 65.1 0 0 0-26.4 29.6 10 10 0 0 1-2.3 3.5c-2 1.6-5.7 6.2-6.6 8-.4 1-1.4 2.4-2.2 3.3a23.5 23.5 0 0 0-2.5 3.3c0-.1 0-1.6.3-3.4.5-4.2.5-5.3 0-5.4-.5-.1-1.3 2-1.6 4.8a35 35 0 0 0-.2 6.7l.2 4-2.2-3.5a556.8 556.8 0 0 1-2.8-4.4c-.8-1.2-1.3-3-1-3.6.3-.3.2-.5 0-.5-.7 0-2 2.1-2.9 4.5a7 7 0 0 1-1 2.1 78 78 0 0 1 .3-14.8c1-7.1 3.8-16 5-16 .3 0 .5 0 .5-.2 0-.6-.8-.4-1.5.3A33 33 0 0 0 34.6 40c-.9 3.6-1.4 8.2-1.6 13.3-.1 4.3 0 5 .5 7.4.8 2.7 1.3 3.5 2.3 3.1.3-.1.5-.6.5-1.5 0-.6.4-2.7.8-4.6l.9-3.3.3 1.4c.4 1.6 3 6.5 5.3 10.2 1.6 2.4 1.7 2.6 2.2 6.4.3 2.1 1.2 7.4 3.2 15.5 1.8 7.1 12 14.2 14.4 16l.6.4c.3.4.8.5 1 .5.3-.1.4 0 .4.3s.3.7.5 1c.3.2.5 1 .6 2.5.2 3 2.4 8.6 4 10.4 1.1 1.2 3.4 1.7 6 1.3 1.6-.3 2.1-.5 2-.8-.1-.3.5 0 1.3.6a67.2 67.2 0 0 0 45 14.4c3.3-.2 3.3-.2 3.1.4-.2 1 .1 1.4 4.7 9.2 3.7 6.2 4 6.6 8 10.8 8.7 9 18.1 15.9 28.8 21.2 10 5 26.2 9.2 40.8 10.5 14.7 1.3 25.3-12.1 25.2-15.6 0-4.7-.7-7.8-2.3-10.8-1.6-3-2.6-4-7.3-7a38.2 38.2 0 0 1-10.6-9.5 10 10 0 0 1-1.8-5.2c0-.7 1-2.4 2.4-2.8 1.3-.3 1.6-.3 3 .4a408.8 408.8 0 0 1 9.2 4.3c1.1.4 1.6 2.5 1.8 3.7l.2.6a9.3 9.3 0 0 0 3.8 4.5c2.4 1.2 8.2 1.4 9.8-.3.4-.5 1.7-1 2-.9.3.2 1.3 1.6 1.3 2.7 0 1.8 1 3.6 3 5.3 4 3.3 7 4 10.1 2.6 1.6-.8 3-1 3-1s1.2 1.6 1.3 2.2c.6 4.4 7.2 6.3 9 6.5l2-.3c1-.2 2-.5 2.3-.2.5.5-7.5 13.6-8.6 15.3-10.4 15.6-30.7 25.2-55.6 26.2-16.1.7-36-3.8-53.2-12a136 136 0 0 1-31.1-21 492 492 0 0 0-4.7-3.9c-.8-.6-2.5-2.6-4-4.5-2.2-3.1-3.6-4.3-3.6-3.2 0 .5 1.5 3.4 3.3 6.2l1 1.8c-.2-.1-.7 2.1-1.2 5-1.5 9.3-4 18.4-6.6 24-1.4 3.1-4.1 5.4-5 6-3 2.3-7.5 3.4-13.7 4a70.8 70.8 0 0 1-37.2-8l-.4-2.2-.1-1.1c-1.2-7.8-2.7-37.6-2.7-51.4 0-5.7-.1-7-.5-7-.8 0-1 .8-1.4 3.5-.8 6.2-.6 38.2.2 45l.2 1.5-1-.6a67 67 0 0 1-10-10.2 30 30 0 0 1-3.8-8l-.5-1.5a50.6 50.6 0 0 1 3.3-39.5c5.3-10.8 11.9-16.9 21.5-19.8l3-1c.7-.6-3.2-.4-5.3.3-6.8 2.1-14 7.8-18.8 15.2a56.5 56.5 0 0 0-7.7 38.4 45 45 0 0 0 3.8 11.6c1 2.2 3.1 6.6 4.6 8.6 1.8 2.5 7.3 7.8 9.6 9.5l1.4 1 .3 2.6c.4 4.8.5 5.3 2.7 7a63.1 63.1 0 0 0 44.3 9Zm106-29.4a107.2 107.2 0 0 1-56.2-23.7 105 105 0 0 1-18.9-22.8c-.7-1.3-1.2-1.9-1.9-2-.6-.2 0-.4 2.6-.8 11.4-2 22.5-6.7 31.4-13.4l1.3-1 .4.9c.8 2 4.1 4.1 6.5 4.1 1 0 4.2-1.5 6.2-2.8l1.4-1 1 1.2c1 1 1.3 1 3.1 1 2.2 0 4.8-1 6.2-2.3l.8-.7 2.2 1.4c1.2.9 4.6 2.7 7.4 4.2 4.3 2.2 8.8 4.7 13 7.4l.8.4-.7.9c-.7 1-2 2.7-2 5.4 0 3.1 3.2 8.6 9.3 12.4 4.8 3 13.1 8.9 12.8 17.4 0 1-1.2 3.6-2.7 6-1 1.4-3.8 3.6-6.4 4.9A38 38 0 0 1 206 183ZM38.8 42.4c.8.2 1.4.5 1.3.6-.4.4-2.6.2-3-.3-.9-.7-.7-1.3.4-1.5.6 0 1.4-.5 1.9-1s.9-.7.9-.5c0 .4-1.6 1.8-2.4 2.1-.5.2-.3.3.9.6Zm12.5.5c.9-.5.7-.8-.4-.7-1 .2-1.1 0-.4-1 .3-.4.4-1 .4-1.3-.1-.4-.3-.2-.8.8-.4.7-1 1.3-1.2 1.3-.8 0-.9.6-.1.9 1 .4 1.7.4 2.5 0ZM40.5 25.8c-.7.1-3 1-5.1 2.1l-4 1.8c-3.3-.3 1.2-5.7 9.3-11.1 7.7-5.2 13-8 17.8-9.4 3-.9 6.5-1 7.4-.3.6.4.4.5-2 .5-5 0-10.7 2.6-20.2 8.9a49 49 0 0 0-10.5 8.6c0 .2.9-.1 2-.6 2.4-1.1 4.9-1.7 6-1.4 1.1.3.9.7-.7.9Zm12.2 2.7c2.9-.6 3-.6 3-1 0-.1-1.1-.3-2.5-.3l-2.5-.1 2.3-2.7c1.3-1.4 2.8-3 3.3-3.3 1.2-.7 1.2-1.2.3-1.6l-.7-.2.8-.3c.4-.1 1.2-.2 1.8 0 .8 0 1 0 1-.5-.2-.4-.5-.5-2-.5-4.5.1-6.4 1.3-3 1.9 1 .1 1.9.4 1.9.5a31 31 0 0 0-6.6 6.6c-1 1.9-.5 2.2 2.9 1.5Zm20.6-12.2c-.9.1-1 .3-1 .7v.5s-.3 0-.8-.4c-.6-.3-.7-.5-.4-.7l1.3-.6 1-.2-.7-.7c-.4-.4-.6-.8-.5-1 .3-.2 3.3.2 3.8.5.2.2.4.2.6 0 .5-.5 1-.1 1 .6 0 .3 0 .4-.3 0-.3-.2-.5-.2-.8 0-.2.3-.4.3-.6 0 0-.1-.6-.3-1.3-.3l-.9.1c0 .1 0 .3.3.7.5.7.5.7-.6.8ZM68.6 8c0-.4-.4-1.1-.9-1.6l-.8-.9 4.7.2a44.4 44.4 0 0 1 9.2 1.1c.7 0 .5 0-.7-.7a26 26 0 0 0-10-2c-6.3-.5-9.5.1-9 1.7.2.3.7.4 1.4.4 1.6 0 4 1 5 1.8.8 1 1 1 1 0ZM53.3 91a64 64 0 0 0 9.3 9.6L61 97.4a65 65 0 0 1-6.6-22.2c-.2-1.8-.5-3.3-.9-3.9a4.5 4.5 0 0 1 0-4.4c.4-.8.7-1.9.7-3v-1.7l-1.5 1.6c-1.5 1.5-3 2.1-3 1.2 0-.7 2.4-4 3.6-5 1-.9 1.1-1.2 1.4-3.6a85 85 0 0 1 1.8-9 53.4 53.4 0 0 0-9.9 13.1l-.8 1 .5 3.4.6 4.3a44.2 44.2 0 0 0 2.8 13c.8 3.6 2.3 7 3.6 8.8Zm127.2 29.6-.7-.6s11-13.9 12.9-19c1.5-4 2.4-5 3.5-5 .7 0 1.3.1 1.5.5.4.7.9 1.5.3 4.3-1 4.5-2.4 7.5-6.7 13.9a33 33 0 0 1-2.9 3.7 14.4 14.4 0 0 1-6 2.7c-1 .2-1.4.1-2-.5Z"
		clip-rule="evenodd" />
	<path fill="#FCFCFC"
		d="M267.2 151.3c4-10.6 3.4-12.9 2.7-13.1 0 0-1.5.8-2.2 2.6a70.3 70.3 0 0 1-7 13.7c-1.8 1.9-1.8 1.9-3.7 1.9-1.9 0-7.3-2.9-8-5.7-1.2-4.4 3.9-20 4-20.8l-.8-.6c-.6.5-8 22.8-17.6 17-1-.7-3.4-3.8-3.6-5.5-1-4.8 3.7-21.7 4.5-25.1.8-3.1 4.6-6 9.2-6 7.2 0 6.3 6.2 9.5 8.5 1.4 1 3.7-.8 4.5-1 4-.7 5.6.1 8.5 2.5 2.3 1.8 4 5.4 5.9 6.7 1 .7 2-.3 2.4-.5 1.5-.7 4.7-.2 5.6.5a13 13 0 0 1 4.9 5.3c2.3 8-4.9 25.7-7.6 29-4.4 5.5-15 1.2-11.2-9.4Z" />
	<path fill="#FCFCFC" fill-rule="evenodd"
		d="M87 122.2a61.7 61.7 0 0 0 54 7.1c6.5-2 15.3-7.9 21.1-12.8A69.9 69.9 0 0 0 185 62.9c0-6.4-2.8-24-11.5-34.2-17.7-21-46.9-30.5-71.4-22.4-8.9 3-18.3 8.2-25.4 15a66.6 66.6 0 0 0-18.2 32.9 65.8 65.8 0 0 0 7 40.8c5 10 13.2 21.8 21.7 27.2Zm83.7-37.9a53.5 53.5 0 0 1-56 35.8 53.2 53.2 0 0 1-33.3-16 52.2 52.2 0 0 1-15.3-33.8A52.7 52.7 0 0 1 115 13a54 54 0 0 1 47 22c.9 1.1 9 13.1 10.5 20 1.9 9 1.2 20.2-1.9 29.2Z"
		clip-rule="evenodd" />
	<path fill="#F5F5F5" fill-rule="evenodd"
		d="M185 63c0 21-10 44-22.9 53.8a78.5 78.5 0 0 1-21 12.5c-10.3 3.2-26.5 2.8-26.5 2.8s16.5-2.2 22.6-4.6a63.6 63.6 0 0 0 33-28.3C182 78.6 185 62.4 185 62.9Z"
		clip-rule="evenodd" />
	<path fill="#FCFCFC" fill-rule="evenodd"
		d="M115 116.4c-8.4-1-16.7-4-23.4-8.5-4-2.6-10-8.7-13-13a54 54 0 0 1-8.2-20.2c-1-5.3-1-13.3 0-18 1-4.8 2.3-8.4 4.6-13a50.5 50.5 0 0 1 50.6-28.2 31.7 31.7 0 0 1 12.6 13.9c0 .4 1 1 1.5 1 .8 0 1.3-2.4 1.5-6.5 0-2.3.3-4.2.4-4.2a51.6 51.6 0 0 1 19.6 15.6c1.5 2 1.7 2.4 1.7 3.6 0 1.1.3 2 1.3 3.7 2.4 4.2 4.4 9.6 5.5 15.5.8 4 .8 11.5 0 15.7a54.8 54.8 0 0 1-16.7 30.1 49.7 49.7 0 0 1-38 12.5ZM92.6 94.9c.2-.3.4-.7.3-1l-1-.5c-1.3-.6-3.6-1.7-4.6-2.8a24 24 0 0 1-6.4-15c-1-7-.2-11.6 1.4-19 .8-3.7 2.8-6.7 4.1-8.6.9-1.2 1.4-2 .9-2-1.2-.2-1.4-.1-2.7 1-2.8 2.7-4 4.8-5.3 8.9-2 6.3-2.5 23.4 1.6 31.1 4 7.7 11 8.8 11.7 8ZM137 68.6c-.5 4.9-2.8 12-5.4 15-1.2 1.4-5.7 4-9.5 3.4a12 12 0 0 1-9-5.8c-2-3.2-3.1-7-3.9-11.9-1.2-8.4 4.3-18 6.7-20.5 2.4-2.5 4.1-3.3 6.3-3.4 2.1 0 3.5.5 5.7 2 4 2.8 10.2 11.8 9.1 21.2ZM95 42.7c.6-.7.7-1 .5-2.4-.1-1.3-.4-1.8-1-2.3-1.2-1-2.6-1-3.7 0-.7.8-.8 1-.7 2.8 0 1.8.1 2 1.1 2.5 1.4.7 2.8.5 3.8-.6Zm19.5-19.3c-5.6 4-8 5.7-10.6 7.2-2 1.3-2.6 1.3-2.6.2 0-.6.4-1.3 1.5-2.3l1.6-1.4-3-.4a19 19 0 0 1-7.5-2.1c-1.2-1.3-.1-1.6 3.2-1 1.5.3 4.5.6 6.5.7l3.8.2 2.7-2c6-4.3 12.2-6.8 15.2-6 1.8.4 1.6 1-.5 1.2-2.4.2-3.9 1-10.3 5.7Z"
		clip-rule="evenodd" />
	<path fill="#FCFCFC"
		d="M122.5 82.7c0-.1.2-.3.4-.3.3 0 .6.2.7.3 0 .2-.1.3-.5.3-.3 0-.6 0-.6-.3ZM124.4 82.4c0-.3.7-.6 1.6-.6.7 0 .7 0 .1.4-.7.6-1.7.7-1.7.2ZM119.5 81.6l-.3-1c-.1-.2 0-.4.5-.4.3 0 .6.2.6.5 0 .2 0 .6.2.9.1.3 0 .5-.3.5s-.6-.2-.7-.5ZM121.2 80.8c-.2-.9.2-1.2 1.3-1.2.3 0 .6.3.7.8.3 1-.1 1.4-1.2 1.4-.5 0-.7-.2-.8-1ZM118 81c-.6-.5-.6-.5 0-.5.4 0 .7.2.7.5 0 .6 0 .6-.7 0ZM124.3 81c-.4-.4-.2-1.7.3-1.9.9-.3 1.3-.1 1.5.7v.9c-.2.3-1.6.5-1.8.3ZM127 80.3l-.1-.9c0-.5.2-.7 1-.9.6-.1 1 0 1.2.2.3.5.3 1.1 0 1.3-.5.3-1.8.5-2 .3ZM116.5 79.3c0-.3.3-.7.7-.7.8-.3.8-.3 1 .5 0 .5-.1.7-.8.7-.7.1-.9 0-.9-.5ZM119 79.4c-.5-.5-.2-1.4.3-1.4s.7.2.7.6c0 .6-.7 1.1-1 .8ZM120.8 78.4c-.3-.6.3-1 1.3-1 .5 0 .7.2.7.6 0 .3-.3.6-.7.8-1 .2-1 .2-1.3-.4ZM129.8 78.3l.4-.3v.3c-.1.2-.3.3-.4.3v-.3ZM123.6 77.8c-.2-.6 0-1 1-1.1.6 0 .9 0 1 .5.2 1-1.6 1.6-2 .6ZM116 77.3c-.2-1-.1-1.2.7-1.2.4 0 .8.2.8.3 0 .2 0 .5.2.8 0 .3-.1.5-.7.6-.6 0-.8 0-1-.5ZM126.6 77c0-.6.2-.9.8-1 .8-.3 1.4.2 1.4 1.2 0 .4-.3.5-1.1.5-1 0-1.1 0-1.1-.8ZM115.2 77v-.5c.3 0 .4.2.4.4l-.1.5-.3-.5ZM118.3 77.2c-.4-.4-.2-1.3.4-1.5h.8c.4.4.1 1.3-.3 1.5-.6.2-.6.2-.9 0ZM129.5 77c-.3-1 0-1.6 1-1.7.6-.1.8 0 .8.5 0 1-.4 1.6-1 1.6-.4 0-.7-.2-.8-.4ZM120.5 76.5c-.4-.3-.2-1 .3-1.1.6-.2 1.8.4 1.5.7-.4.4-1.6.7-1.8.4ZM123.2 75.8c-.2-.5.8-1.2 1.6-1.2.3 0 .5.2.4.5 0 .6-1.7 1.1-2 .7ZM114.6 75.5l-.1-.7v-.5c.5 0 .8 1.1.4 1.4-.1 0-.3 0-.3-.2ZM115.5 74.8c-.2-.7.2-1.2.9-1.2.4 0 .8 1.3.6 1.7-.4.5-1.3.2-1.5-.5ZM117.7 75c-.5-.5-.2-1.6.4-1.8.5-.1.7 0 1 .6.2.4.3.8.2.9-.3.3-1.4.5-1.6.3ZM126.2 75c-.5-.4-.3-.7.7-1 .8-.3 1-.2 1.1.1.3.8-1.3 1.5-1.8.9ZM129 74.3c-.4-.5 0-1 .8-1 1 0 1.3.8.4 1-1 .3-1 .3-1.3 0ZM131.6 73.5c0-.5.5-1 .8-.7.2.2-.2 1.1-.5 1.1-.2 0-.3-.1-.3-.4ZM114.2 73.1c0-.1-.2-.5-.1-.8 0-.6 0-.6.3 0 .3.8.2 1.2-.2.8ZM114.8 72.6c-.2-1-.2-1.2.6-1.2 1 0 1.5 1.2.8 1.6-.7.5-1.1.3-1.4-.4ZM125.6 73.3l.4-1.2c.4-1.3 1.4-1.3 1.6-.1v1l-2 .3ZM117 72.5l-.2-.8c0-.5.1-.6.5-.3.3.3.5.6.5.9 0 .4-.4.5-.7.2ZM128.3 71.8c-.1-1 .3-1.4 1.2-1.2.5 0 .7.3.7 1 0 .8-.2 1-.9 1-.6.1-.8 0-1-.8ZM131.4 72c-.4-1.3-.3-1.7.6-1.8.7 0 .8 0 .8.9 0 .7-.2 1-.6 1-.4.2-.7 0-.8-.1ZM113.8 70.2c0-.6 0-.9.1-.5v1l-.1-.5ZM114.6 70.6c-.5-.4-.3-1.6.2-1.8.8-.3 1.1 0 1.1 1.1 0 .7-.2 1-.6 1-.3 0-.7-.2-.7-.3ZM116.4 69.7c0-.4-.2-1 0-1 .3-.3.5.2.4 1l-.1 1-.3-1ZM126.6 69.5c0-.3.1-.5.3-.4.2 0 .3.4.3.6 0 .3-.1.5-.3.5-.2 0-.3-.3-.3-.7ZM128 70c-.5-.5-.1-1.4.6-1.6.9-.2 1-.2 1.2.7.2.6 0 .7-.7.8H128ZM130.9 69.3c-.4-.3-.3-1.3 0-1.3.2 0 .4-.1.4-.3 0-.2-.2-.3-.5-.3-.5 0-1-1.6-.5-2 .6-.6 1.2 0 1.6 1.6l.5 2c.1.4 0 .6-.6.6-.4 0-.9-.1-1-.3ZM132.5 67.7l-1.1-4.2c-.7-2-.7-2.5-.4-2.8l.6-.2a29 29 0 0 1 1.5 7.6l-.1 1.3-.5-1.7ZM113.5 67.5c0-.5 0-.7.1-.4v1l-.1-.6ZM114 67.5c.2-1.1 1.1-1.4 1.4-.4.2.8.3.7-.7 1-.6.2-.7.2-.6-.6ZM127.3 67.2c-.2-1 .3-1.5 1.3-1.3.7 0 1 1.4.4 1.8-.8.5-1.5.3-1.7-.5ZM115.9 67c0-.6.2-.9.5-.9s.4.2.4.7c-.2 1-.9 1.1-.9.1ZM113.1 65.6c0-.3.1-.4.2-.2v.6c-.1.1-.2 0-.2-.4ZM113.7 65.5c0-.5.2-.6.7-.6.4 0 .6.1.5.5-.2.8-1.2.9-1.2.1ZM115.4 65.2c-.2-.5-.2-.5.8-.8.5-.2.6 0 .6.4 0 .7-1 1.1-1.4.4ZM126.8 64.8c-.2-.8.2-1.2 1.3-1.2.5 0 .7.2.7.8 0 .5-.2.8-.5.8-.2 0-.6 0-.9.2-.3 0-.5-.1-.6-.6ZM129.5 64c-.2-.6.1-1 .8-1 .5 0 .6.2.6.8 0 .5-.1.7-.6.7-.3 0-.7-.2-.8-.4ZM113.4 63.6c0-.6.7-1.4 1-1 .2 0 .2.5.2 1 0 .4-.1.6-.6.6-.4 0-.6-.2-.6-.6ZM115.1 63.3c-.2-.8 0-1.2 1.1-1.3 1-.2 1.3.9.5 1.5-.9.6-1.4.5-1.6-.2ZM126.5 63c-.3-.1-.3-1.3-.2-1.3l1.1-.3c1-.2 1-.2 1 .6 0 .7-.2 1-.7 1.1-.9.2-1 .2-1.2 0ZM125.3 62.3c0-.2.1-.3.2-.2v.5c-.1 0-.2 0-.2-.3ZM128.8 61.8c.1-.5 1-1.3 1.3-1 0 0 .3.5.3.9.3.6.2.6-.7.6-.8 0-1 0-.9-.5ZM113.7 61.8l.3-.7c.3-.4.3-.4.3.2 0 .4 0 .7-.3.7-.1 0-.3 0-.3-.2ZM114.6 61.1c0-.9.7-1.1 1.2-.5.3.5.3.7 0 .9-.6.4-1.2.3-1.2-.4ZM124.2 60.7c-.6-.6-.6-.6 0-.5l.8.3c.2 0 .3.2.3.4 0 .7-.4.6-1.1-.2ZM117.4 60.7c-1.3-1-1.5-3.4-.2-3.4.8 0 1.6 1.3 1.5 2.6-.1 1.1-.5 1.4-1.3.8ZM126 60.9h.5c0 .1 0 .2-.3.2-.2 0-.3-.1-.2-.2ZM130.8 59.7l.1-.7.4-.1c.1 0 .3.3.3.6 0 .4-.2.7-.5.7-.4 0-.5-.2-.3-.5ZM114.3 59.6c0-.8.7-2 1-2 .7 0 .3 2-.4 2.2-.3 0-.6 0-.6-.2ZM121.4 59.2l-1-.2.9-.2c.9-.3 1.5 0 1.5.4s0 .4-1.4 0ZM120.3 57.7c0-1.3.7-1.5 1.4-.3.4.7.4.9 0 .9-.2 0-.6 0-1 .2-.3.1-.4 0-.4-.8ZM125.7 58.1c-1.4-.6-2.3-2.2-2.3-4.2 0-1.4.1-1.8 1-2.6.5-.5 1-.9 1.2-.9.7 0 3.2 2.5 4 4l1 1.7-1 1c-1.2 1.3-2.5 1.7-3.9 1ZM119.2 57.3c-.1-.1 0-.3.1-.3.2 0 .4.2.4.3 0 .2-.1.3-.2.3 0 0-.2 0-.3-.3ZM115 56.8l.3-.6.6-.1c.8 0 .8.5 0 1-.8.4-1 .3-.8-.3ZM117.6 56.5c-.8-.1-1-.5-.5-.8l1.2-.4c.9-.2 1-.1 1 .4 0 .7-.6 1-1.7.8ZM120 55.4v-.5l.6.6c.3.5.3.6-.1.6-.3 0-.5-.3-.5-.7ZM115.6 55.2c0-.2.1-.4.3-.5.2-.1.3 0 .3.3 0 .2-.1.5-.3.5-.2 0-.3-.2-.3-.3ZM116.7 54.7c-.2-.6 2-1.3 2.4-.7.3.5 0 .7-1.2 1-.7.1-1 0-1.2-.3ZM119.7 53.7c0-.3 0-.4.2-.2v.6c-.1.1-.2 0-.2-.4ZM117 53.2c.4-.7 1.5-1.8 1.8-1.8.3 0 .3 1.5 0 1.6l-1.1.4c-.7.1-.9.1-.7-.2ZM119.5 52.5c-.3-1-.2-1.4.6-1.5.8-.2.8-.2.3.8-.6 1.3-.6 1.3-.9.7ZM119.3 50.6l1.5-1c.9-.5 1.6-.7 2-.6.6.2.4.3-1 1-1.5.7-2.5 1-2.5.6ZM136.7 22.8c-.8-1.2-2.6-3.2-3.9-4.4-1.3-1.2-2.1-2.1-1.9-2.1.7 0 6 1.4 7.3 2 1.1.5 1.1.5.9 1.5-.2.6-.3 2-.3 3.1 0 1.2-.1 2.2-.2 2.2-.2 0-1-1-1.9-2.3ZM73 117.8c-1.3-.7-1.6-1-3.2-4.3-2.4-4.6-2.4-5.6-.2-3l4.5 4.7c2.7 2.6 2.8 2.8 2 2.7-.7-.1-1 0-.8.2.4.6-.8.4-2.3-.3Z" />
	<path fill="#404040" fill-rule="evenodd"
		d="M125.5 174.9c-.3-.7 0-1.4.6-1.6l.7-.3a38.6 38.6 0 0 0 13-7.2c2.5-2.7 2.8-6.6 3.3-9 0-.7 1.6.5 2.2.6.7.2 1.1.8 1 1.5-.6 2.8-2.2 5.6-4.7 8.2a46.2 46.2 0 0 1-14.5 8.4c-.6.3-1.4 0-1.6-.6ZM155.2 49.8c.6-.3 1.3-.1 1.6.4a37.6 37.6 0 0 1-48.1 53.4c-.6-.3-2.9-2.5-.6-1.6 2.3 1 11.3 3 16.5 3 19.4 0 33.1-16.1 33.1-35.6 0-6.4-2.5-12-3-18 0-.6-.1-1.2.5-1.6ZM35 141.7c.4-.5 1.2-1.6 1.7-1.2 2.1 1.8 4.4 3.8 6.8 4.2 2.5.4 5.4.4 8.9 0a1.2 1.2 0 1 1 .3 2.4c-3.7.5-6.9.5-9.6 0-2.9-.4-5.5-1.7-8-3.7-.5-.5-.6-1.2-.1-1.7Z"
		clip-rule="evenodd" />
	<path fill="#FCFCFC"
		d="M60.7 99.2a64 64 0 0 1-7.4-8.2 27.1 27.1 0 0 1-3.7-8.8l-.9-3.2-1.1-5c-.8-3.6-.6-4.8-1.3-9.1l-.5-3.3.8-1 1.3-2.3c1-2.7 8.4-11.2 8.6-11l-.6 3.3a85 85 0 0 0-1.2 5.8c-.3 2.4-.4 2.7-1.4 3.5-1.2 1-3.5 4.4-3.5 5 0 1 1.4.4 2.9-1.1l1.5-1.6v1.7c0 1.1-.3 2.2-.7 3a4.5 4.5 0 0 0 0 4.4c.4.6.7 2.1 1 4a65 65 0 0 0 8 25.3l-1.8-1.4Z" />
</svg>
