<svg xmlns="http://www.w3.org/2000/svg" width="294" height="249" fill="none">
  <path fill="#F9B803" d="M103.6 221.2c68.3 11.8 103.6-11.8 103.8-12.5 2-1.1 3.9-2.2 5.7-3.5a271.6 271.6 0 0 0 12.5-9.7c.9-.8 1.5-2 2.4-2.8 2-2 4.3-3.9 6.3-6a445 445 0 0 0 18.8-20.6l5.3-6.9c1.5-1.9 3.1-3.7 4.4-5.7a90 90 0 0 0 8-15.3c1.4-3.3 3.2-6.3 3.3-10 .1-3 .7-6 .8-9a44.2 44.2 0 0 0-3.6-19c-1.5-2.7-3.2-5.4-5-8a33 33 0 0 0-7.9-8.3c-2.9-2.2-6-3.8-9.4-5.1-3.1-1.3-6.3-2.4-9.4-3.6l-5.3-2.3-8.7-3.4c-4.5-2-8.5-4.6-11.7-8.3l-6.7-7-6.7-6.7c-1-1-1.7-2-2.6-3l-4.5-3.8c-1.5-1.2-2.9-2.6-4.5-3.6-3.7-2-7.4-4.1-11.5-5.3-3.6-1-7-2.4-10.8-3-3.8-.6-7.6-1.2-11.5-1.2h-15c-1.3 0-2.5 0-3.7.2l-9.8 1.8-7.7 1.6-5.7 1.4-9.6 2.7c-4.4 1.3-8.3 3.8-12.7 5-2.4.7-4.7 1.7-7 2.6a547 547 0 0 0-11.6 5c-1.8.8-3.5 1.9-5.3 2.5a51 51 0 0 0-10.4 5.4c-2.7 1.8-5.2 3.8-7.8 5.6a44.3 44.3 0 0 0-10 8.8c-2 2.5-4.2 5-5.9 7.7a154 154 0 0 0-6.7 11.9c-2 3.8-3.6 7.7-5.3 11.6a88.9 88.9 0 0 0-3.1 7.8c-1 3-1.7 6.3-2.7 9.3-.7 2.5-1 5-1 7.6l.2 2 .2 20.3c0 1.2.3 2.4.5 3.5l1 6.3 1 5.2a67 67 0 0 0 6 13.8c1.6 3 3.3 5.8 5 8.6.6.9 1.4 1.6 2 2.4l4 4.9c19.5 21.9 47 24.3 69.6 28.1Z"/>
  <path fill="#F9B803" d="M7.7 160a43.2 43.2 0 0 1-3-10L3 141.8c-.3-1.4-.3-3-.5-4.4l-1.1-7.6-.6-3.8c-.4-4.6-.8-9.1-.6-13.7 0-2.5 0-5 .2-7.3L2 95.9c.3-2.1.5-4.3.9-6.4.6-3.7 1.7-7.1 3.6-10.3l2.6-4c.6-1 2.5-1.8 3.3-1.6 1.1.2 1.5 1 1.4 2-.2 1.7-.4 3.4-1 5.1l-3 10.5c-.6 2.6-.9 5.3-1.3 7.9a909.6 909.6 0 0 0-1.7 12.3l-.3 6.4-.2 4.2A332.8 332.8 0 0 0 7.5 139l.9 5.2.9 5.4c.3 1.6.8 3.1 1.2 4.7l4 12.2 3 9c.5 1.4.2 2.2-.8 2.2-.8 0-1.5-.5-1.8-1.3l-1-2-4.2-9.3-2-5ZM257.6 48.3l-8.4 2.1c-2 .4-4.2 1-6.1.8-2.5-.2-5.1.5-7.5-.8-1.5-.8-3-1.8-4.4-2.8-2.6-2-4.4-4.6-5.8-7.5a37.7 37.7 0 0 1-3.5-13.7c.1-2 .5-3.9.8-5.8.4-2.4 1.2-4.7 2.3-6.8 1.3-3 3.8-5 6.4-7 3-2 6.4-3.8 10-4.8 2-.7 4.3-.9 6.5-1.2 4.2-.6 8.3.5 12.3 1.5C266 3.7 269.3 8 271 13.4c.9 3 1.3 6.2 2 9.2.3 1.7.7 3.5.8 5.2 0 1.4-.2 2.8-.4 4.2-.6 2.7-1.7 5.2-3.2 7.5-1.3 2-3 3.3-4.8 4.7-2.2 1.9-5 3-7.8 4ZM268.2 69c-.7-.9-1.4-1.6-1.9-2.6-.2-.5-.2-1.3 0-2 .3-1 1.4-.9 2.2-.6.8.2 1.6.7 2.2 1.3 3.4 3 6.3 6.6 8.8 10.4 2.2 3.2 3.8 6.7 4.4 10.5.4 2.6.7 5.1.9 7.7.2 4.7.4 9.5.4 14.2 0 4-.7 8-2.3 11.8-.6 1.2-2.4 2.8-4 2.7-1.1 0-2.3-1-2.3-2.1 0-1.8.3-3.5.5-5.2l1-6c.3-1.7.6-3.4.6-5 0-3 0-5.8-.2-8.6-.3-2.7-.9-5.3-1.5-7.9-.7-3.1-1.4-6.2-3-9-1.8-3.2-3.8-6.3-5.8-9.6ZM27.4 57.6l-2.5 3c-2 2.3-3.8 4.8-5.8 7.2-.5.7-1.3 1.2-2.1.8-.9-.5-.8-1.4-.7-2.2 0-1.9 1-3.4 2-4.8a58.8 58.8 0 0 1 16.3-15.8c1.7-1.2 3.4-2.4 5.5-2.8.5 0 1.3 0 1.4.2.2.5.2 1.2 0 1.6a14 14 0 0 1-2.2 2.2c-1.4 1.2-2.8 2.3-4.1 3.6l-7.8 7Z"/>
  <path fill="#404040" d="M256.3 200.6c-.9 3-2 5.9-2.6 8.9-1 4.5-3 8.8-4 13.3l-.3 1.2c0 .1.4.4.6.4l1-.1 8.3-.2c.8 0 1.6.2 2.4.4l.3.7a70.7 70.7 0 0 1-1.2 4c-1.4.2-1.2 1.4-1.4 2.2l-1.3 7.4-1 5.5c-.3 1-1.2 1.3-2 1.3h-12.9c-1.2 0-1.8-.8-2-1.8l-1.5-8.5-.8-4.8c-.2-.6-.4-1-1.2-.9-1 .2-1.7-.3-1.9-1.4l-.8-2.7c-.2-1 .2-1.4 1.2-1.4h5.9c1.7 0 3.4 0 5.1.2.6 0 .7-.2.6-.7l-.3-1.2-4-7.4c-.5-1-1.3-1.9-2.1-2.8l-5.6-6-2.2-2c-.6-.5-1.2-.3-1.8 0a9.2 9.2 0 0 1-9.5-.6 9 9 0 0 1-2.6-3c-1-1.6-1.8-3.5-2.8-5.2-1-1.6-2-3.3-3.4-4.6-3.1-3.1-7-5.2-11.2-6.3-2-.5-4-.1-5.8.4-1.8.5-3.5.4-5.3.2-3.4-.4-6.3-2-9.1-3.7a7.5 7.5 0 0 1-3.6-5.9c-.2-2 .2-3.7 1.4-5.2a8.8 8.8 0 0 1 4.4-3.4c1.7-.4 3.3-1 4.9-1.5a3 3 0 0 1 1-.1c2.1 0 4.4-.2 6.6 0 3.8.3 7.5.5 11 2.5 1 .6 2.1 1 3.2 1.5.3.1.4.5.6.7h-1c-1.6-.7-3.3-1.2-5-2-1.9-1.1-4-1.2-6-1.4-2.1-.3-4.3-.2-6.4-.3-3.2-.1-6.3.6-9.3 2a7.1 7.1 0 0 0-4.1 4.6 7 7 0 0 0 2.4 7.3c2.3 1.7 5 2.7 7.5 3.5 2.3.7 4.8.8 7.2 0 3-.8 5.7-.2 8.5.8 3 1.2 5.8 2.6 8 4.8 1.4 1.2 2.5 2.7 3.5 4.2l4.4 7.6c1.2 2 3.1 2.4 5 3 1.8.5 3.4-.2 5-.7.4-.2 1-.6 1.1-1 .5-1 1-2.1 1-3.1.3-2.2.2-4.4-.4-6.5-.4-1.6-.7-3.2-1.4-4.7-1.5-3-3.1-6-6-8-1-.8-1.8-1.9-2.7-2.8l-4.5-4.6c-.3-.2-.3-.6-.4-1l1 .4.4.4c2.4 2.3 4.6 4.8 7.1 6.8a25 25 0 0 1 6.1 8.5c.9 1.7 1.2 3.7 1.5 5.6.3 1.5.5 3 .5 4.6 0 1.2-.5 2.5-.8 3.7-.1.6-.1 1.2.4 1.7a435 435 0 0 1 7 7c.8.7 1.4 1.7 2.2 2.5 1.7 1.9 2.8 4.2 3.8 6.5 0 .2 0 .3.2.4l.5.4c0-.2.2-.4.1-.6-.8-4-1.5-8-3-12l-1.3-3.9c-.2-.6-.6-1-1.2-.7-1.2.5-2.2 0-3.2-.4-2-.8-3.3-2.3-4-4.3l.2-1c.2.2.5.4.6.7 1.1 2.5 3 4.3 6 4.1.7 0 1-.2.7-.8-1-3.4-2-6.8-3.7-10-1.4-2.5-2.7-5.2-4-7.8-.2-.1-.3-.3-.3-.5 0-.4.2-.8.4-1.1l.7.9c1.4 2.8 2.6 5.7 4.2 8.4 1.4 2.5 2.1 5.1 3 7.7l.6 2 .4.4.4-.4a9.7 9.7 0 0 0 1.2-7.1c-.5-3.2-1.7-6-3-8.9a40.8 40.8 0 0 0-4.3-7.7c-1-1.5-2.1-3-4-3.7a6.5 6.5 0 0 0-6.5 1.1c-1.5 1.3-1.2 2.2 0 3.6.3.5.8.8 1.2 1.3l.2.5c-.2 0-.5.2-.6.1-1.2-1-2.8-1.6-3-3.3-.2-1.6.9-3 2.3-3.6 1.8-1 3.8-1.4 6-.8 2.6.6 4 2.6 5.5 4.6a62 62 0 0 1 6.5 13.2c1 2.6 1.1 5 .9 7.6a7.5 7.5 0 0 1-1.6 3.7c-.6.8-.7 1.4-.4 2.3l2.7 8.7c.2.7.1 1.4.2 2 0 .3.3.4.4.6l.2-.5v-3.4l.5-4c0-.2.4-.4.7-.6.2.3.5.7.5 1 0 1-.3 2-.4 3.1l-.2 3.6v4.3l-.2 2.7v1.7c.2-.2.6-.4.6-.6.3-1 .3-2 .6-2.8l2-6.2c.3-.7.7-1.4.8-2.2.1-.8.1-1.5-.6-2.2a23 23 0 0 1-2.7-3.3c-.3-.5-.4-1.2-.5-1.8-.6-4.5-.4-9.1-.4-13.7 0-.9.3-1.8.4-2.6 0-.4 0-.9-.2-1.1-1.8-2-2.8-4.6-3.7-7.1-.8-2.5-2-5-2.7-7.5-.9-2.9-1.5-5.8-2.1-8.7l-1.3-6.6v-.8l-.4-10c-.4-4.3.1-8.5 1.4-12.6.8-2.4 1.6-4.9 2.7-7.2 1-2.2 2.5-4.3 5-5.1 1-.4 2.2-.3 3.3-.2 2 .2 3.8.8 5 2.4 1 1.5 1.9 3 2.2 5 .4 1.7 1.2 3.3 1.7 5l1.3 7 1.3 7.5c.5 3 1.2 5.8 1.8 8.7.1.5.2.6.6.2.8-.9 1.8-1.2 3-1.5 1-.3 1.9-1 2.9-1.4l4.3-1 2-.1c2.3-.3 4.3.6 6.2 2l4.7 3.4c2.4 2 3.6 4.8 5 7.6.8 1.8 1.3 3.6 1.4 5.5 0 1.8-1 3.2-1.9 4.8a5.6 5.6 0 0 1-2.5 2.7c-1.7.8-3.9.4-5.2-.8a17.8 17.8 0 0 1-3.7-5c-.5-1-1.1-2-2.2-2.6l-.3-.6.7-.2c1.2.2 1.7 1.2 2.3 2.1 1 1.4 1.6 3 2.6 4.3 1.8 2.2 3.8 3 6.3 1.2 1-.8 1.4-2.2 2-3.4 1.5-3.3.3-6.2-1.4-9-.7-1.3-1.3-2.6-2.2-3.7a22 22 0 0 0-5.9-5.2c-2.4-1.6-5-2-7.7-1.8-2.3.1-4.5.6-6.4 1.9-.2.1-.5.3-.8.3-2.8.7-4.3 3-6 5-1 1-2 2.1-2.8 3.3-1.4 2-2.8 3.9-3.8 6a54.3 54.3 0 0 0-4.3 12c-.5 2.5-.7 5-1.1 7.6-.2 1-.5 2-.6 3.1v1.3l.1 2.3c0 1.4-.1 2.8.1 4 .3 1.8 0 3.7 1 5.3.6.8 1.5 1.5 2.2 2.2.4.4.7.4.8-.4l1.8-6.9 3.1-11.8c.3-1 .9-2 1.3-3l7-15.9 3.1-6.3c.3-.6.4-1.2.8-1.7.1-.3.6-.3 1-.4v.9l-3 5.8c-1.6 3.6-3 7.3-4.7 10.9-.7 1.7-1.5 3.4-2.4 5a37.3 37.3 0 0 0-3.3 10c-.4 2-1 3.7-1.5 5.6v.7ZM239.6 154c.4 3.2.6 6.4 1.3 9.5.8 3.7 1.8 7.2 3 10.7 1.3 3.7 3 7.3 4.4 10.9 0 .2.2.3.4.5l.2-.7 1.5-6.6c.8-2.5 2-4.9 2.8-7.4 1.2-3.4 3.4-6.3 5.7-9.1 1-1.3 2.4-2.5 3.6-3.7.5-.5.7-.9.4-1.5-.2-.3-.2-.7-.3-1.1l-1.7-7.6c-.4-1.6-.6-3.3-.9-5l-.6-4.5-2.8-11c-.5-2-1.4-3.8-3.1-4.8-1-.6-2.3-.7-3.5-1-.5 0-1-.2-1.6-.1a9.1 9.1 0 0 0-5.6 5.3c-1 2.1-1.6 4.4-2.3 6.7a26 26 0 0 0-1.4 8.2v8.3c0 1.2.3 2.5.5 4Zm17.5 80H248c-.3 0-.7-.3-1-.4.4-.2.7-.4 1-.4h8.7c.2 0 .5-.2.7 0 1 1 .8-.4.9-.6.2-.7.2-1.4.5-2.1.3-1 0-1.2-1-1.2h-11l-5.4.2H239c-.2 0-.6.4-.6.5l.9 4.7 1.5 7.7c.2.8 0 2 1.3 2h13c.3 0 .9-.3 1-.6l.6-3 1.2-6.4v-.6l-.9.2Zm-10.2-5.6h12.4c.8 0 1-.3 1.1-1 .1-.5.1-1 .3-1.4.4-1-.2-1-.9-1l-8 .2-3.2-.2c-1.1 0-2.2.3-3.3.2-3.2 0-6.4-.2-9.5-.4-.8 0-1 .3-.7 1 .2.6.5 1.3.6 2 .1.7.5.9 1 .9l3-.2h7.2Z"/>
  <path fill="#404040" d="M262.5 205.5c1.2-1.3 2.5-2.5 3.5-4 1.6-2.3 2.3-5.1 3.2-7.8l1.6-5.9 1.6-7.7 2.1-6.3 1.1-2.3c.2-.2.6-.2 1-.3 0 .3 0 .6-.2.8a40 40 0 0 0-3.2 9.6c-1 5-2 9.9-3.8 14.6a24.4 24.4 0 0 1-5.1 8.9c-2.5 2.7-5.6 4-8.8 5.3l-.8-.2.5-.6c1.4-.7 2.9-1.2 4.2-2l3.1-2.1ZM226.6 195.9c-2.4-2.9-4.7-5.8-7.2-8.5-2.1-2.2-4.8-3.8-7.4-5.3a137.7 137.7 0 0 1-4.5-3v-.5h.5l2 1.1 5.9 3.7a23 23 0 0 1 3.1 2.4A63.2 63.2 0 0 1 231 201v1l-.8-.7-3.5-5.5ZM287.7 171.3c-.3-.3-.4-1-.7-.1l-1 3.3c0 .2-.3.4-.4.6-.2-.3-.5-.5-.4-.7l1.3-4c.1-.3.2-.6.1-.8-1-2.4-2.2-4.8-3.4-7.1-.8-1.8-2.3-3-3.8-4-.4-.4-1-1.3-.9-1.3.7-.7 1 .2 1.5.5 2.7 2 4.5 4.6 5.8 7.6.3.6.6 1 1.4 1 1 .2 2 .8 2.5 1.9v.8l-.6-.3c-.5-.5-1-1-1.5-1.3l-.7-.1.1.7 2.5 6c.1.2 0 .6 0 .8-.3 0-.7-.2-.8-.4l-1-3.1ZM203.5 178.8c-.4.2-.8.4-1.1.3-2.3-1-4.7-1.4-7.2-1.5l-7.2-.4c-.4 0-.7-.3-1-.4.3-.3.6-.6 1-.7 3.4 0 6.7.2 10 .9 1.3.2 2.6.3 3.8.7.6.1 1.2.7 1.7 1.1Z"/>
  <path fill="#404040" d="M257.4 206.8h-.3l-.8.2c0-.3.1-.8.4-1 1.3-1 2.7-2.2 4.2-3.2 1.2-.8 2.4-1.4 3.6-2 .3-.2.8-.1 1.2-.2l-.7 1-4.4 2.6-3.2 2.6ZM265.6 195l-6.9 3.8-.6.2c0-.3-.1-.6 0-.8.6-.5 1.1-1 1.8-1.3 2.3-1.2 4.7-2.3 7.1-3.3.3-.2.7 0 1.1 0-.2.3-.4.7-.7.8l-1.8.5ZM207.4 184.4c-.8-.6-.3-.9.3-.8 1.5.2 3 .3 4.5.7 1.5.4 3 1 4.4 1.6.3.2.5.6.7.9h-1l-6-2-3-.4ZM268.6 186.2l-7.7 4.5-.8.1.1-.7.5-.5a689.6 689.6 0 0 1 8-4h.5l-.6.6ZM251 190.2c-.2-.2-.5-.3-.5-.5v-1c.3.2.6.3.7.5l4 5c.5.6.7 1.5.6 2.3 0 .2-.2.3-.3.4l-.4-.2c-.5-2.4-2.4-4-3.7-5.8l-.4-.7ZM242.6 191v4.6c0 .3-.3.5-.4.8-.2-.3-.5-.5-.5-.7l-.2-4.1.2-1.8v-.8l.8-1 .2 1.1-.1 2ZM261.2 173.6l.7 4.4v.5l-.5.6c-.1-.3-.3-.5-.3-.8-.3-1.4-.5-2.9-.9-4.3-.2-.6-.7-1.2-1-1.8l-.3-.6c.3 0 .8-.2 1 0l1.3 2ZM252.7 201.7c.3.6.6 1 .7 1.6l-.2 1.1c-.2-.2-.5-.4-.6-.7l-2.6-5.8v-.8c.3.1.7.2.8.5.6 1 1 2.2 1.6 3.3l.3.8ZM257 190l-.8-2.4a8 8 0 0 0-2.2-3.8l-.2-.7.8.1c1.8 1.5 2.5 3.5 2.8 5.7 0 .3-.2.6-.4 1ZM221.7 180.2c.3.3.7.5.7.8v5.2c0 .3-.5.5-.8.8l-.1-1v-4.2l.2-1.6ZM222.5 194.2c1 .1 1.9.2 2.5 1l.2.5h-.6c-1.3-.1-2.5-.4-3.8-.6l-1.5.2c-.2 0-.4-.3-.6-.4.1-.2.3-.4.5-.4 1-.5 2-.7 3.3-.3ZM227.6 189.8l-1 3-.4.3c0-.1-.3-.2-.3-.4 0-.5 0-1.1.2-1.7a9 9 0 0 0 .7-4l.2-.7c.2.3.6.5.6.7v2.8ZM266.6 180.1l-2.4 1.5-.4.1v-.5c.6-.5 1-1.1 1.7-1.5 1-.5 1.8-1.2 3-1l.7.4-.7.4-2 .6ZM235.7 195l3.3 1.7.7.8v.4h-.5l-3.3-1.5c-.3-.2-.6-.4-.7-.7-.2-.4-.2-.8.5-.6ZM239.4 185.7l.2 2.9-.2.5c-.2 0-.5 0-.6-.2-.2-.4-.4-.9-.4-1.3l.3-3c0-.2.4-.4.6-.6l.2.7-.1 1ZM282 164.9l.3-.7.5-.4.2.5-.2 4.4-.3.4-.3-.4a35.5 35.5 0 0 1-.2-3.8ZM236 188.5c0 .5 0 .8-.5.5l-1.5-.8-.3-.8c.3 0 .6-.3.8-.2.5.3 1 .8 1.4 1.3ZM253.2 161l1.4 3.6-.2 1.5c-.3-.3-.9-.5-1-.9-.1-1.1-1-1.6-1.7-2.3-.7-.6-1.2-1.3-1.7-2-.1-.2 0-.6 0-.8.2 0 .5 0 .6.2l1 1.4.6.2v-.6c-.5-1.6-1.1-3.1-1.5-4.8a70 70 0 0 1-1.3-6.7c-.5-3.7-1-7.4-.9-11.1 0-.4.3-.8.5-1.1l.4 1c.3 2.8.7 5.6.8 8.4.1 3.2.7 6.2 1.5 9.3l1.5 4.7ZM255.3 156.3l.9-2.6c0-.3.1-.6.3-.7.2-.3.5-.4.8-.5v.9l-2 8c0 .3-.3.5-.5.8-.2-.3-.5-.6-.5-1l1-4.9ZM248.1 151.6l1.1 1.7v.7l-.7-.1c-.4-.6-.9-1-1.2-1.7L245 147l-.2-.2.2-1.3c.2.3.5.6.6 1l2.6 5ZM253.8 150.1l-.4 3c0 .3-.3.6-.5.9l-.3-.7c-.4-1.7.3-3.3.5-4.9 0-.7.3-1.4.6-2 0-.4.5-.6.7-1 .1.5.3.9.2 1.2l-.8 3.5ZM251 141.7c.3-.8.5-1.4.9-2 .1-.3.5-.3.8-.4v.7l-1.2 4.2c0 .2-.3.3-.4.4l-.4-.5c0-.8 0-1.6.2-2.4ZM247 241.4l7.7-.3h.5l1 .6c-.3.1-.6.5-1 .5h-8.1l-.7-.3.7-.5ZM245.5 236.7l-.5.6-3.6.2c-.3 0-.6-.3-1-.5l.9-.3h4.2Z"/>
  <path fill="#FCFCFC" d="m65.9 119.8 18.5 29h45.5l2.2-5.2h-15l-16.6-23.8H66Z"/>
  <path fill="#404040" d="M132.2 163h-13.7l-12.7-.3-9.1-.2c-3 0-5.9 0-8.8-.2l-9-.4-7.9-.5-8.3-.6-6-.4c-.6-.1-.7.1-.7.7v8.9l-.1 19c0 1.5.2 3 .1 4.5L56 202c0 1.5.2 3 .1 4.4 0 5.7 0 11.4-.2 17l-.2 13.6c0 1.4-.8 2.2-2.2 2.2-1.2 0-2-.9-2-2.2-.2-3.1-.2-6.2-.3-9.4v-4.7l.2-3.6-.2-5.3v-5.4l.2-13.4-.2-4.6V176l.2-5.2v-9.3l.3-.9.2.2.3.8v1.4l-.1 5.8.2 8.5-.2 4.4.2 5.2-.2 4 .2 3.6-.2 6.9.2 5.3-.2 5.6.2 4.3-.2 5.3.2 5.5-.2 5.4c0 1.5.2 3 .4 4.4 0 .3.7.8 1.1.8.3 0 .8-.4 1-.8.2-.3.3-.7.3-1.1v-46.2l.2-18.7-.2-7.5.2-2.2c0-1.3-.2-1.5-1.4-1.6-2.4-.2-4.8-.3-7.1-.6-3.8-.5-7.7-.7-11.4-2a30 30 0 0 1-4.4-1.9c-1.2-.7-1.5-2-1.4-3.2.1-1.3.9-2.1 2-2.5 2.5-.8 5-1.6 7.6-2.2 1.1-.3 2.4-.2 3.5-.3l5.6-.8 4.2-.5c1.7 0 3.4 0 5.1-.2l8.3-.9 2.8-.2 5.9-.2 5.8-.2c.3 0 .5-.2.7-.3l-.3-.6-5.9-9-5.2-8.1-3.6-5.9c-.5-.8-.3-1.3.6-1.5h2l.6.1 14 .3c3 0 6 0 8.9.2 2.8.3 5.4-.2 8-.4.5 0 1.2.3 1.4.7l7.9 11.7 7.5 11c.4.6 1 1 1.9 1l22.1.1h5.4l8.9.3 6 .2 7 .2 9 .4 8 .4 4.8.3 8.5.8 5.2.5 7.8 1 6.4 1.1c2 .5 4 1 5.8 1.8 1.6.7 1.5 1.3 1 2.7-.2.6-.7 1.2-.8 1.9-.3 2.2-2 2.6-3.6 2.9l-9.5 1.7-4.4.4-9 .7-6 .4-8.6.5-10.2.4-8.2.4-5 .2-27 .3Zm87.7-12.6-1.8-.5-6.5-1.2-4.7-.4c-2.9-.4-5.7-.8-8.6-1-2-.3-4-.4-6-.5l-7.5-.7a710 710 0 0 0-19.5-1l-6.8-.3-8.9-.2-11-.2h-19.4c-.3 0-.5.2-.8.4l.8.2h8.4c.3 0 .6.3 1 .4l-.8.3-.8.2h-7.7l1 1.8.3.3c.2 0 .3.3.5.3l6-.2c.3 0 .7.3 1 .5l-1 .3h-9l-13.7.2H86.7c-.4 0-.7-.3-1-.5l1-.5H117l.8-.2-.4-.7-6.3-9.1-5.2-7.4-6-8.7c-.2-.2 0-.6-.1-.9l.7.5 6 8.7 9.7 14a217 217 0 0 0 2.6 3.6c.1.2.3.2.5.3v-.6l-1.9-3-10.2-14.7-6.1-9c-.3-.4-.8-.8-1.5-.7-1 .1-2 .3-2.9.2l-6.5-.2-8.8-.2-13.2-.2H68l-1.5-.1.8 1.4c2.2 3.5 4.3 7 6.6 10.3l10.4 16.1.2.9c0 .2-.2.3-.3.5l-.3-.3-1.5-2.5c-.4-.4-1-.8-1.5-.8l-7 .6-5.7.2-9.3.5a133.6 133.6 0 0 0-13.7 1.3l-3.6.5-5.8 1.2-4 1c-.4.2-.7.6-1 1l1 .7c.4.3 1 .6 1.6.7 1.5.4 3 .6 4.6.9 2.4.5 4.7 1.1 7.1 1.5 3.2.5 6.5.8 9.7 1l9 .7 5.9.5 9.6.6 10.3.2 4.4.2 8.3.5 15.4.2h8.2l23.2-.2 12-.4h4.2a546.5 546.5 0 0 0 12-.5l9.7-.6 6-.5 7.9-.4 5-.4 8.3-1.3c3-.5 6-1.1 8.7-2.3 1-.5.6-.8.2-1l-3.2-1.3Zm-150.8 9.8 6.6.4 8.6.4 11 .4 5.3.3 9.9.2 35.2-.2 10.6-.3c2.6 0 5 0 7.6-.2l14.6-.4 6.7-.2h.5l9-.9 6-.4c3.4-.4 6.8-1 10.2-1.3 3-.1 6-.8 8.9-1.5.8-.3 2-.2 2.5-1.1.2-.2.2-.5.3-.8h-.8c-3.8 1.4-7.8 1.7-11.8 2.3-2.7.4-5.5.6-8.2.9l-8.7.8-8.3.5-5.5.2-7 .4c-3.7.2-7.3.4-11 .4-7 .2-14.2.2-21.3.3h-2l-24.1-.3c-3.3 0-6.6 0-10-.2-5.2 0-10.5.3-15.8-.4-3-.3-6.1-.3-9.1-.4l-5.7-.2a392.4 392.4 0 0 1-15.4-1.1l-6-.7c-3.2-.3-6.3-.9-9.4-1-4-.2-7.5-1.4-11.1-2.4-.2 0-.4-.1-.4 0 0 0-.2.3-.1.4l.5.6c1 .4 1.9 1 2.8 1.1l7.5 1.3c2.4.5 4.9 1 7.3 1.3l7.3.7 3 .2 9.8.9Z"/>
  <path fill="#FCFCFC" d="M60.8 145.3c0 1.8-2.5 3.4-5.3 3.4s-5.3-1.6-5.3-3.4c0-1.7-1-6.5 5.6-5 5.7-.3 5 3.3 5 5Z"/>
  <path fill="#404040" d="m143.7 245-9.8-1-4.4-.1-6.4-.3c-3.2 0-6.3-.3-9.5-.4h-10.9l-19.4.2-5.9.2a80 80 0 0 1-3.9 0l-6.2-.2-10.4-.2c-3.1 0-6.3.2-9.3 0-2.6-.3-5-1.2-7.6-1.6a4.7 4.7 0 0 1-3.1-2c-1-1.5-.2-3.9 1.7-4.8 1.5-.7 3-1.3 4.6-1.3l1.2-.2h5c.3 0 .7.4.8.7.2.7-.3.6-.7.6-1-.1-2-.4-3.1-.4-1 0-1.9 0-2.7.2-1.5.3-3 .7-4.3 1.3-1 .4-1.7 1.2-1.7 2.4a2 2 0 0 0 1.5 2c2.2.8 4.5 1.4 6.7 2h.3l11.4.2c3.3 0 6.6-.4 9.8 0 6.1.5 12.3.1 18.4.3l6.6-.2h3.1l21.2-.2c2.8 0 5.6.2 8.4.4l6.4.4 9.3.7 6.2.6 6.8 1c1.2.3 2.4.4 3.7.5 2.5.3 5.1.7 7.7.8 1.7.2 3.4 0 5 0 4.7.3 9.4.6 14 .7 2.8 0 5.5-.3 8.3-.4 2.2-.1 4.5-.2 6.8-.5a117.2 117.2 0 0 0 14.5-2.6c1.6-.5 3-1.4 4.3-2.5 2.3-2.1 1.5-4.2-.6-5.6-2.4-1.6-5-2.9-8.1-3l-5.6-.7c-.1 0-.4-.4-.3-.5 0-.2.2-.6.4-.6l5 .5c1.4.2 2.8.4 4 .9 2.5 1 5.1 1.8 6.8 4.2 1.5 2 .8 3.8-.5 5.3a13 13 0 0 1-7.4 3.8 142.7 142.7 0 0 1-13.5 2l-9.3.4c-3.8.1-7.6.6-11.4.3-3.8-.3-7.6-.5-11.5-.6-2.4 0-4.8-.3-7.3-.6l-6.6-1c-1.4-.3-2.9-.3-4.3-.5l-4.2-.7Z"/>
  <path fill="#404040" d="M202.8 235.5v2.1c0 1-.9 1.8-2 1.7-1 0-1.7-.6-1.7-1.6l.2-6.7-.2-5.5v-15.3l-.2-4.3v-44l.6-.5.2.5v7c0 1.8.2 3.4.3 5.1v7.4l-.2 2.9.2 2.1v50.7c0 .4-.2.9.6 1 .7 0 1-.3 1-.9.2-.2.1-.5.1-.7v-4.2l.2-33.3-.2-3.4.2-5-.2-4.2.2-11.6.2-4.8-.2-7.5c0-.4-.2-1 .6-1 .5 0 .9.4.5 1-.1.2 0 .6 0 .8l-.2 5 .2 4.1-.2 2.9.2 1.7v11.8l-.2 4.3.2 4.4-.2 20.3.2 6-.2 11.7ZM115.2 233l-8.1.3-8.2.4-10 .5c-2.1 0-4.3 0-6.5.2l-10.1 1H61.5c-1.4 0-2.9-.4-4.4-.6-.2 0-.4-.4-.6-.7.2 0 .5-.4.7-.3 1 0 2.1.3 3.2.4l.9.2h6.6l11.8-.9h.5l6.6-.2c3-.1 6-.1 9-.5 5.4-.6 10.9-.6 16.3-.6 7.1 0 14.2-.3 21.3-.1 3 0 6.1.6 9.2.6 3.4 0 6.7.2 10 .1 2.8 0 5.4-.3 8.1-.4l12.8-.4 9.2-.6 4.7-.3 10.1-.6c.9 0 .8.2.5.8l-.5.3-5.8.2c-4 .1-7.8 0-11.7.5a68 68 0 0 1-8 .6l-3 .2-10.1.2-10.3.4-4 .2c-2.4 0-5 .2-7.5-.2-7.2-1.1-14.5-.4-22-.6Z"/>
  <path fill="#FCFCFC" d="m122.2 47.8 7.5.3v50.8h-6.8l-.7-51Z"/>
  <path fill="#404040" d="m122.3 91.8-.2-1.5v-25l-.2-4.1v-13c0-.9.2-1.1 1-1.1h5.5c1 0 1.6.3 1.7 1.8v36l-.2 13.3c0 1-.8 1-1.3 1-1.6.2-3.1.3-4.7.3-1.3 0-1.8-.7-1.6-2l-.2-4.1.2-1.6Zm.6-35.3v7.8l.3 23v10.4c0 .7.1 1 .9 1l3-.3c1.9-.2 1.9-.2 1.9-2V51l.2-1.6c.2-1 0-1.3-1-1.3h-4.4c-.8 0-1.1.3-1 1.1 0 1-.1 2.1 0 3.2l.1 4Z"/>
  <path fill="#FCFCFC" d="M104.6 57.5h6l.8 41.4h-6.8V57.5Z"/>
  <path fill="#404040" d="m104.6 57 1.2-.2 4.4-.2c.7 0 1 .3 1.1 1l.2 7.2-.2 4.4.2 1.6v17l.2 10.2c0 1-.4 1.5-1.5 1.5h-4.8c-.8 0-1-.2-1-1l-.2-30.5-.2-4.7V58c0-.4.3-.7.6-1Zm.4 11.6v10.2c0 6.4.2 12.7.3 19 0 .1-.1.3 0 .4.1.2.4.4.6.4l4-.1c.7 0 1-.4 1-1.1l-.2-2.2-.3-16.6.2-6.9-.2-5.7v-7.5c0-.6-.2-.9-.8-.8l-3.7.2c-.7 0-.9.3-.9 1v9.7Z"/>
  <path fill="#FCFCFC" d="M86.8 69.5h6l.8 29.4h-6.8V69.5Z"/>
  <path fill="#404040" d="m93.6 84.6.2 11.2v2.4c.2 1-.6 1-1.2 1-1.7.2-3.4.1-5 0-.7 0-1.2-.2-1.1-1v-5.7l-.2-22.4c0-1.3 0-1.4 1.3-1.4h4.6c.8 0 1.2.2 1.2 1.1l.2 4v10.8Zm-.9-5.9-.2-3.4v-4.7c0-.7-.3-1.1-1-1-1 0-2.2.2-3.2.1-1 0-1.2.3-1.2 1.2a1555.4 1555.4 0 0 1 .2 26.4c0 .6.1 1.1.8 1.1 1.3 0 2.5-.2 3.8-.1.8 0 1.1-.3 1-1.1l-.2-9v-9.5Z"/>
  <path fill="#FCFCFC" d="M68.5 77.7h6.7v21.2h-6.7z"/>
  <path fill="#404040" d="M68 87v-7.8c0-1.6.5-2.1 2.1-2.1h4.6c1 0 1.2.3 1.2 1.2v19.6c0 1.2-.2 1.4-1.4 1.4h-5.3c-.7 0-1-.3-1-1L67.8 87Zm6.5 11.2c.2-.2.5-.5.5-.7l-.2-1.8.2-4.2V79c0-.7-.3-1-1-1-1.5 0-3 0-4.4.2-.2 0-.6.4-.6.6l-.2 4.6.2 5.2v8.2c0 1.6 0 1.6 1.6 1.4h3.9Z"/>
  <path fill="#FF9A9A" d="M88.2 135.8c-.9-.1-1.1-.7-.8-1.2 1.1-1.6 2.4-3 3.6-4.5.2-.2.5-.2.8-.3v.8l-1.5 3.2c-.3.5 0 .6.4.5h.8l.6.3-.3.5-4 5.3-.4.3-.3-.5 1-3.1.1-1.3Z"/>
  <path fill="#404040" d="m92.6 123.5.8.1c0 .2 0 .5-.2.6l-4.3 4.9c-.1.2-.4.3-.6.4v-.9l1.4-1.8 2.9-3.3ZM82.7 142c-.7.3-1 .1-.6-.5l2-2.8c.2-.2.6-.1.9-.2 0 .3 0 .6-.2.8l-2.1 2.8Z"/>
  <path fill="#FCFCFC" d="m140.3 178 4 11 6.3-4.2-2-8 6.1-4 2.2-11.8h18l-4.3 26.2-1.7 13.5-.7 12.8 2.6 2.9 3.4 1.6h4.6l3.1-.7 5.8-12.3 4.8-12.7 6.5-24.6 3.6-2.1s3.4-10.4 3.4-15.7c0-5.3 2.2-21-1-32.3-2.6-9.3-11.3-22.1-11.3-22.1l-6-6.3 1-20.7-19-2.4-3.2 8.7s1.7 7.5 4.3 10.3c1.7 1.9 5.3 1.5 5.3 1.5l2.2 10.6-2.2 4.3-5.5 14.5-1 12.2-16.8 4.6 7 4.1-26.3 3.9s-5.8 2.8-3.8 14.2c1.9 11.3 6.5 21.9 6.5 21.9l4 1.2Z"/>
  <path fill="#F5F5F5" d="M196.8 168.4c2.3-1.2 4.3-1.7 5.8-3.5 4.1-5.2 4-47 2.2-46-1.8.9-1.6 8.9-1.2 10.5 1.7 8.5-2.9 28.3-3.3 29.2-.3 4.3-6 6-10 7.7-2 .9-4.7 1.1-4.8 2.1 0 1 1.6 1.8 2.8 1.7 2.8-.3 6.3-.4 8.5-1.7ZM177.6 212.7c-.5 1.5-.6 3-.7 4.6 1 .4 2 .7 3 .4l.8-.2c.3 0 .4-.2.6-.4.5-.4 1-.9 1.3-1.4a32 32 0 0 0 3.6-6.5c.3-1 .9-1.9 1.4-2.8l.6-1.5.5-1.5c.3-1 .8-2 1-3 .3-1 .8-1.9 1-2.8l.8-3c.1-.4.3-1.1.2-1.6-.2-.5-.8 0-1.1.2a5.9 5.9 0 0 0-2.3 2.8c-.7 1.7-1.8 3.3-3 4.6a36.2 36.2 0 0 0-7.2 10.6l-.5 1.5Z"/>
  <path fill="#FCFCFC" d="M142.2 193.7c-4.3 4-11.4 10-8.4 15.2 2.5 4.3 10.5-3.3 15.4-7.5 4.5-3.9 9.5-10.6 7.4-13.2-2.6-3.4-10 1.4-14.4 5.5Z"/>
  <path fill="#404040" fill-rule="evenodd" d="m167.3 64.3 2.5-1.6c.6 0 .8.2.2.6-1.6 1-3.1 2-4 3.7l-.1.8v.4l.4-.1.8-.3a13.7 13.7 0 0 0 1.8-1.1h.4v.3l-1 2.4c-.5 1.5-1 2.9-2.3 3.9-.9.7-.7 2.1 0 2.6.6.4 2.5.2 3-.2l.2-.3v-.2l-.4-.2-.6.1h-.6l-.8-.1-.3-.1.1-.4.3-.6.5-.6.6-.7 2.2-5.2c.2-.7.6-1.2 1.4-1h.9c.8 0 1.6.1 2.3.4 3.8 1.2 6.3 3.3 6.5 8.2v1.2l-.1 1 .1.4.1.2.2-.1.4-.2.4-.5c0-.1 0-.2.2-.3l.4-.6c.3-.4.6-1 1-1.2.5-.4 1.3-.6 1.8-.4.5 0 .8.7.7 1.5 0 1.1-.4 2-1 2.9h-.1c-.6.9-1.5 2-1.3 2.8.4 1.6 1 3.1 1.6 4.7l.9 2.5c0 .3 0 1-.2 1.3a366 366 0 0 1-5.4 5.6l-1.3 1.4-.3.2-.1.1-.1-.1-.2-.4c-.5-3.3-1.3-6.6-2.8-9.6 0-.1.1-.6.3-.7 1.8-.4 3.5-1 5-2.2l.3-.4.1-.2h-.8c-.5.1-1 .3-1.4.6l-2 .8c-3.6 1.2-6.4.5-8.1-2.7-.6-1-.9-2.2-1.1-3.4l-.5-1.8-.3-.5-.2-.2-.2.3-.3.6 1 4.2a7 7 0 0 0 4.4 4.7l.8.6-.1 2.2c-.6 2.7-2.3 4.8-4 7l-.5.4a95.5 95.5 0 0 0-3.3 4.2c-.5.7-.9 1.6-.4 2.5.7 1.5 2.3 1.5 4 1.2a13 13 0 0 0 6-3.4l.3-.2h.1l.1.2.1.4c0 .9-.2 1.7-.4 2.5-.1.6-.3 1-.6 1.5-.1.4-.4.7-.6 1l-.9 1.5-2.5 8c-1 3.6-1.9 7.3-1.4 11.2 0 .2 0 .6-.2.7l-.8.3c-.8.4-1.6.7-2.4.6-1.3 0-2.5 0-3.7.6l-2.6.7-.6.1a39 39 0 0 1-3.7.8c-.4.2-1 .7-1 1 .1.5 0 .5-.4.4l-1.7-.1-4.7-.5-3.2-.5-3-.4-2.6-.2-2-.2-1.8-.3a50 50 0 0 0-3.7-.3c-.5 0-1.2.4-1.4.9-.3.7.5 1 1.1 1.2a126.3 126.3 0 0 0 13.4 1.3l5.7.3a583.6 583.6 0 0 1 7.5.6l1.8.2h1.7c.2 0 .3-.2.5-.4l.2-.2-.3-.2c-.2-.1-.3-.3-.6-.3l-3.6-.3-2-.1-.3-.2h-.2l.1-.2.4-.2.2-.1 2.7-.6 1-.2c1.5-.2 2.9-.4 4.2-1.2l.3-.2h4.1c.6 0 1.5 1.3 1.4 1.9a25 25 0 0 1-.5 2.4c0 .3-.3.7-.5.7l-1.2.3c-1.4.3-2.9.7-4.4.8h-3.5l-2-.2c-.3 0-.5.1-.7.3l-.3.1.3.3.6.4h2l1.7.2c1.4.2 2.7 0 4.1-.2 1.5-.3 3-.5 4.6-.2l1.6.1 2.2.3.3.1c3.5.8 7 1.7 10.8 1.6 1.2 0 1.6.5 1.6 1.7v2.3a197.8 197.8 0 0 1-1 25.5c0 .4.2 1 .4 1.2a4.8 4.8 0 0 0 4.6 1.4h.4c2.7-.7 5.3-1.3 7.7-2.7l.7-.1h.3v.1l-.4.6v.1l-.2.4a252.2 252.2 0 0 0-2.2 9.7c-1.1 4.3-2.4 8.6-3.7 12.8l-1.2 3.1-1.2 3.4c-1.7 5.8-4.5 11.1-7.4 16.4-1 2-2.8 2.5-4.8 2.5l-3-.3-.7-.1c-2.5-.4-5.1-2.2-5-5.3l.1-5a1096 1096 0 0 1 .3-4.8l.2-1.7.7-5.2v-1.8c0-.8 0-1.5.2-2.3l1.6-8.5.8-3.8.5-2.6 1.4-7.5.6-4.6c0-.7.2-1.3.3-2v-.7l.2-1.5.7-2.6.4-1.8v-.5h-.2l-.3.2-.5.8-1 3c-.2.8-.5 1.2-1.2 1.3l-1 .1c-1.6.3-3.2.5-5 .4a44.2 44.2 0 0 0-7.3.3h-1.2l-1.9-.1c-.2-.1-.3-.6-.3-1l-.1-.6-.1-.1-.5-.7-.1-.3-.2.4-.2.6v3c.1 1.8-.3 3.5-.7 5.2l-.4 1.6c-.2 1-.8 1.1-1.5 1-2-.4-4-.7-6-.3-.6.2-1.2.3-1.9.3-1 .2-2 .3-3 .7-1.9.6-3.7 1.4-5.4 2.5-.8.5-1 .4-1.4-.4l-1-2.4-2.1-5.7-.7-3c0-.6-.2-1.1-.3-1.7l-.2-1.1c-1-3.9-1.8-7.7-1.3-11.8a6.5 6.5 0 0 1 4.4-5.6c3.6-1.3 7.3-1.9 11.1-2.4l.9-.2 5-.7 3.2-.4s.2 0 .3-.2l.1-.1-.1-.2-.3-.3h-2.9l-4.6.7-1 .1-1.2.2-4.7.8-3 .7-1.9.5c-2.6.6-4.5 2-5.8 4.4a7.6 7.6 0 0 0-.7 3.8 67.9 67.9 0 0 0 1.4 11.3l.3 1.8.2 1.2.5 2.4 1.7 4.4 1 2.5.5 1c.5 1.2 1 2.3.9 3.6l.3.7.1.2c.7 1.2 2 1.2 3.1 1.3h.4c.7 0 1.1.4 1.3 1l1 2.6.8 2.3.8 2 1 2.4c.2.8.6 1 1.3.5l2.5-1.6 3-2c.3 0 .5-.6.4-.9l-1-3.5-.3-1.5-.3-.8a6 6 0 0 1-.4-1.9c0-.7.5-1 1-1.1.5-.2.9-.3 1.1-.6l.5-.3.3-.1c1.7-1 3.2-2 3.5-4.1.1-1.2.4-2.2.7-3.3.4-1.7.9-3.4.8-5.1 0-.2.2-.4.4-.4l3.6-.3H169.3c1.4.1 2.8.2 4.2-.4.3 0 1.1-.3 1 .6l-.4 2.5-.7 5-1 5.2a530.5 530.5 0 0 0-1.4 7v.4l-.8 4.6c-.4 2.6-.8 5.3-1 8l-.2 1-.1 1.7c-.7 2.6-1 5.3-.9 8v6.2c0 .7 0 1.6.2 2.3.7 2.4 2.7 3.6 5 4.1 1.8.5 3.8.7 5.8.5 1.6-.1 3-.8 3.8-2 1.2-2 2.4-4.1 3.4-6.3a213.7 213.7 0 0 0 6.1-15.7l.9-2.5.9-2.6 1.4-4.2c.6-1.8 1-3.7 1.5-5.6a359 359 0 0 0 2-8.7c.3-.8.5-1.5.3-2.3-.1-.7.2-.9.6-1l.5-.3c1.3-.5 2.6-1 3.2-2.6l.2-.6a28.4 28.4 0 0 0 1-3.2c.4-1.2.8-2.5 1-3.8.4-2.3.6-4.7.7-7l.2-9.3-.1-2.5a52.2 52.2 0 0 1-.2-5.3l-.3-7.5c-.2-2.5-.5-5-1-7.4a34 34 0 0 0-3.1-10.2l-.5-.9c-1.5-2.8-3-5.7-4.7-8.4a23 23 0 0 0-5.7-6c-1-.9-2-1.7-2.8-2.7l-.2-.7c0-.1.3-.3.5-.3 2-.1 3.6-1.3 4.9-2.6 2.3-2.5 3.9-5.4 4.7-8.8v-.6c.6-2 1-4.1.6-6.3-.9-3.5-2.6-6.7-5-9.2-4-4-8.7-5.2-14-4h-.8l-.6-.2-1.1-.2c-1.4 0-2.8 0-4.1.2-1.2.2-2.3.6-3.4 1l-.4.1c-.2 0-.3.3-.5.5l-.2.2.3.2c.2 0 .5.2.7.1.6 0 1-.1 1.6-.3l1-.1h.7l-.2.2c0 .2-.2.4-.3.5l-1.2.5a12.3 12.3 0 0 0-2.3 1.4c-1 .6-1.8 1.2-2.3 2.3V64.4H167.3Zm23.2 30.3a23.3 23.3 0 0 0-4.2 7.2c-2.1 4-2.9 8.2-2.6 12.5.1 1.5.4 3 .6 4.4l.3 2.1.1 1.4.3 2.2c0 .2.2.4.3.5l.2.2.2-.2c.2-.2.4-.4.4-.6l-.3-3-.2-1.7a81 81 0 0 1-.6-8.2c0-3 .8-5.7 2-8.5l.3-.7 1.5-3.4 2.3-3.3c.8-1 1.2-1 2 0l.3.4c1.4 1.7 2.7 3.4 3.7 5.5l2.4 4.5 2.3 4.2c.5 1.1.8 2.4 1 3.6l.3.8 1 5.6.3 1 .6 4 .1 5.7.1 3.7.2 3.7.2 6.6c0 1.6-.2 3.3-.4 5l-.4 4.5a26 26 0 0 1-1.3 6.5l-.7 2.4a4 4 0 0 1-2.6 2.8l-2.8 1.3c-.9.5-1.8 1-2.7 1.3-1.3.4-2.6.7-4 .8l-1 .2c-.7.1-1.4.2-2 0-1.6-.5-1.9-.8-1.8-2.6a661.6 661.6 0 0 1 .8-17.2v-.8c.2-1.3.2-2.7.2-4 0-1.4-.2-2.8-.4-4.2-.2-1.3.3-1.7 1.7-1.5 3 .5 5.9.2 8.5-1.4 1.7-1 2.3-2.8 2.7-4.6l.2-2.7a61.4 61.4 0 0 0 .6-16.8l-.2-.6-.2-.2-.2.2-.4.6v1.5a40 40 0 0 1 0 2.6c.2 1.7.2 3.3.2 5 0 1.2-.3 2.3-.5 3.5l-.3 2.2-.2 1.9v2c-.3 1.8-1 3.7-2.7 4.6-1 .7-2.5 1-3.7 1a48 48 0 0 1-6.9-.4H184c-.8 0-1.6 0-2.4-.2l-4.6-.7a330.3 330.3 0 0 0-3.3-.6l-3.2-.4c-.9 0-.8-.6-.7-1.1l.2-1 .4-1.3c0-1-.2-1.9-1-2.5-.7-.4-.7-.5 0-.8.7-.3 1.5-.7 2.3-.7h9.5c1.7.1 3.4.4 5 .7l1.6.2.4.3.3.3.5.2c.2 0 .3-.4.3-.5a76.2 76.2 0 0 0-.8-9.8V118l-.1-1.5c-.1-1-.2-2-.1-3a48.3 48.3 0 0 1 .8-5.8v-.6l.4-2c.4-1.2 1-2.4 2.5-2.5l1.3.1.7.2h1.3l-.3-.4c-.1-.3-.3-.6-.6-.7-2-.7-4.2-.6-5.3 2a18 18 0 0 0-1.4 5.5 32 32 0 0 0-.5 7.2l.3 4.6.3 4.8.2 1.4.2 1s-.2.3-.3.2c-.5 0-.9-.2-1.3-.3-.8-.3-1.6-.6-2.4-.6-3.7-.2-7.4-.3-11-.2-1.2 0-1.3-.3-1.3-1.2 0-4.2 1-8.2 2.4-12v-.2l.2-.1-.2-.8-.1-.3-.2.2-.4.6-.5 1.5-1.4 4.4-.6 4.8-.3 2.1v.4c0 .3 0 .7-.5.7-.3 0-.6-.8-.5-1.2l.2-1.5 1-6.8c.6-2.5 1.4-5 2.1-7.3l.5-1.6.7-1.3.3-.5 1.3-2.2.3-.4a68 68 0 0 1 .7-1l.2.3.4.7.2 1.2.2 1.5c.2.4.6 1.1 1 1.2.4 0 1.2-.2 1.5-.6l5.3-7.4a1508.3 1508.3 0 0 1 1.7-2.5v-.3l-.1-.2h-.2l-.2.2-.2.2-2.5 3.2-2.8 3.8-1.5 2h-.1l-.2.2-.2.5-.1.2-.2-.3c-.2-.2-.3-.4-.3-.7 0-1.3-.2-2.5-.9-3.6l-.1-.3c-.2-.3-.4-.8-1-.5l-.4-.5c-.2-1.3.3-2 1.4-2.7 1.5-1 3-2.2 4.5-3.5l3.2-3.3a129.2 129.2 0 0 1 1.6-1.8c.2-.2.4-.4.8.2.4.7 1 1.2 1.6 1.7l.8.7c.4.3.7.6.2 1.3Zm-45.4 76.3h.1c.4 0 .8.2.9.5l2.2 7 .2.7a205.5 205.5 0 0 0 1.2 4c.2.8.1 1.5-.7 2a25.6 25.6 0 0 0-3.8 3.1c-.5.4-.7 0-.8-.4a81 81 0 0 1-1.3-4c0-.3-.2-.5-.3-.8-.2-.7-.5-1.4-.3-1.6.5-.6 1.2-1 2-1.3a15.4 15.4 0 0 0 1-.6h.3l.5-.5.2-.2a4 4 0 0 1-.4-.2c-.3-.1-.6-.3-.8-.2-.9.4-1.8.9-2.5 1.5-.7.5-1 .5-1.2-.2l-.1-.3-2.2-6.1.3-.4c1.6-1.2 3.5-1.6 5.5-2Zm3.4 4.1c0-.2 0-.4-.2-.5l-.6-1.6a34 34 0 0 1-.3-1c-.3-1 0-1.4 1.1-1.4l3.3.3 2 .1c.7 0 .5.4.3.7-1 1.7-2.7 2.6-4.3 3.4l-.7.4c-.5.3-.6 0-.6-.4Zm-12 1.6c-.5-.6-.7-1.2 0-1.8l1.9-1.4H139v.1l-.2.3.1.7.4 1.8c.3.7 0 1-.6 1h-.3c-.7 0-1.3 0-1.9-.7Z" clip-rule="evenodd"/>
  <path fill="#404040" d="M169.2 243.2a4129.4 4129.4 0 0 1 3.2-.2c1 0 1.7-.3 2-1.3l2.9-8.2.1-.4c.3-.4.5-.7 0-1.1l-.3.4-.7.9-1.7 4.5c-.2.8-.8 1-1.5 1-1.3.2-2.7.3-4 .3a583 583 0 0 1-13.7-.4c-1.8-.1-3-1.7-2.7-3.5.1-.5.7-1 1.2-1.2.1-.1.5.2.8.4l.3.3.3.2.4.3c.3.3.6.2.6-.3 0-.7-1.2-2-2-2-2-.2-2.7 1.2-3 2.9-.1 1.6 1.7 3.8 4 4l3.9.2a541.5 541.5 0 0 0 12.7 0h1.7c.1 0 .3 0 .4.2l.1.1-.4.6c-.3.4-.6.9-1 1-.9.2-1.8.2-2.8.2h-.6a97.2 97.2 0 0 1-6.4 0c-1.7 0-3.5-.1-5.1-.4-2.4-.4-4.7-1-7-1.5-.8-.3-1.6-.5-2.5-.6-1-.3-1.8-.5-2-1.4-.2-.8.3-1.2.9-1.7l.5-.4.8-.4a80.3 80.3 0 0 0 2.7-1.5l.2-.2-.3-.1-.5-.2h-.1c-1.7.6-3.4 1.2-4.6 2.6-1.2 1.5-.8 3.3.8 3.9l3.7 1 2.5.7c3 1 6.2 1 9.3 1.2l3 .1h4ZM141.5 192.2l-1.6 1.5c-1.2 1.1-2.4 2.2-3.5 3.5-1.2 1.4-2.3 3-3.3 4.6-.3.5-.4 1.2-.4 1.8l-.1.6.1.4.1.2.2-.2.2-.3.2-.8.5-1.2.4-.6c.7-1.1 1.4-2.3 2.3-3.1 2.4-2.4 5-4.8 7.5-7l2.2-2c.1-.2.3-.2.5-.3h.3v.3c0 .2 0 .5-.2.6a56 56 0 0 1-3.5 3.3 41 41 0 0 0-7 7.2c-1 1.4-1.8 3-2.4 4.7-.4 1.2 0 2.2.4 3.2v.1c.3.7 1.8 1 2.9.6 2.7-1 5-2.5 7-4.4 2.8-2.5 5.4-5.2 7.9-8 1.1-1.2 2.1-2.7 3-4.2l.9-1.4.2-.8.1-.6c0-.2.2-.3.3-.4l.2-.1.1.2.3.4c.2 1.2-.2 2.3-1 3.3a55 55 0 0 1-8.8 10.1l-1.7 1.8a21.2 21.2 0 0 1-9 5.2c-1.5.5-3-.5-3.6-2.1l-.5-1.2-.6-1c-1-2.5-.2-4.7 1.3-6.8 2.4-3.5 5.5-6.1 8.7-8.8l.8-.4c.2 0 .4 0 .5.2v.5l-1.2.9-.7.5Z"/>
  <path fill="#404040" fill-rule="evenodd" d="M176 232.2a361 361 0 0 0 2.8-11.5v-.3c.1-.3.2-.5-.2-.6-.3 0-.8.5-.9.8v1l-.2.9c-.2.5-.6 1-1 1.2-1.7.7-3.2.4-4.7-.4-.3-.2-.6-.7-.5-1l.3-1.3.4-1.4-.3-.8-.2-.3-.2.2-.5.6-.2 1.3c0 .4-.2.7-.3 1l-.4 1.8c-.6 2-1.2 4-1.2 6.3 0 .8-1.2 1.7-2 1.6-.2 0-.5-.6-.4-.7l.6-.6.5-.4c.2-.1.3-.4.4-.6 0 0-.3-.3-.5-.3-1.1-.2-2.8 1.6-2.5 2.7l.6 2 .3.7v.2l.2-.2.4-.6c.5-1 2.2-1.7 3-1 1.3 1.4 3 1.3 4.7 1.1.7 0 1.7-.4 2-1.4Zm-6.4-1.7v-.3a78 78 0 0 0 1-5c.1-.8.5-.9 1.2-.6 1.4.5 2.8 1 4.3.4l.5.1h.3v.3l-.1.5a190 190 0 0 1-1.2 4.5c-.3 1.3-1.2 2.2-2.5 2.4-1 .2-3.2-.7-3.5-1.6v-.7Z" clip-rule="evenodd"/>
  <path fill="#404040" d="m187.5 189.8 1.2-3 .7-.6.1-.2h.5v.6a447 447 0 0 1-3.3 7.1c-.4.8-1 1.2-2 1.1h-1l-3.2-.4c-.5 0-1-.3-1.3-.6-.2-.1-.3-.3-.4-.6l-.2-.3H179.8a9 9 0 0 0 5.3.8c.3 0 .6-.5 1-1l.4-.5 1-2.4ZM132.7 152.5l.8 4.5.3 1.5.5 2.1 1.7 4.5c.1.2.3.3.6.4l.3.1v-1l-.4-.7-.5-1-1.2-5.9-1.2-5.2c0-.3-.2-.5-.4-.7a4 4 0 0 1-.3-.3v.3c-.2.2-.3.4-.3.7v.7ZM180.5 184.4l-1-.5.2-.2c.2 0 .4-.2.6-.1l2 .2 2.8.4h3.3a64.3 64.3 0 0 1 3 .2l.3.1-.3.2-.5.3h-6.5l-2.5-.3-1.4-.3ZM161 142.8H160l-1.8-.1-5.2-.2-.7.2-.4.4-.1.2h.2c.2.2.3.3.5.3l10.2.2.5-.1.2-.1-.2-.2c0-.2-.2-.4-.3-.4l-1.7-.2ZM171.2 206.8l.7-5.5c0-.3.3-.5.5-.7l.3-.3.1.4.2.7c-.7 3.5-1.2 7-1.1 10.5 0 .2-.1.3-.3.5l-.1.2-.3-.3-.3-.6V209l.1-1.1.2-1.1ZM194.5 174l-.2 1v.8l-.3 1.7-.6 3.4v.3c-.1.5-.3 1 .5 1.2l.6-1.5a120.5 120.5 0 0 0 1.2-7.8l-.2-.4-.2-.2-.2.1-.4.5-.2 1ZM149.7 187.6c1.8-1 3.7-1 5.6-.6.3.1.6.4.9.7l.4.3h-.5c-.3.1-.7.2-1 0-2.2-.4-4.2 0-6 1.3l-.5.2-.3.1-.1-.2-.2-.5 1.2-.9.5-.4ZM174.7 79.1a14.8 14.8 0 0 1-1.6.6l-1.6.5-.6.4-.3.3.3.1.7.3 4.7-1.8c.2-.1.3-.4.3-.5l-.6-.3a7 7 0 0 0-1.3.4ZM163.1 233.2a23.4 23.4 0 0 0-.8-1.3c0-.2-.2-.8 0-.9.2-.2.7-.3 1-.2.8.4 1.5 3.4 1 4.1 0 .1-.7 0-.8 0l-.2-1c0-.2 0-.5-.2-.7ZM159.6 233.3l.5.8v.3l.2.7.4.5.2.3.3-.3.4-.5c.2-.8-.6-2.9-1.5-3.4h-1v.3c0 .2 0 .4.2.5 0 .3.2.5.3.8ZM158.6 234.6l-.4 1.5-.2-.4-.6-.9v-.2l-1.3-1.5c-.4-.4-.4-.5 0-.7.9-.5 1.4 0 1.8.6.3.3.4.8.6 1.2v.4ZM179.4 187.6v-1.9c-.7.1-.8.6-.9 1.2 0 .6-.2 1.1-.3 1.7 0 .5-.2 1-.3 1.4l.6.5.5-.3.4-2.6ZM172.2 69.5l-.2-.1-.3-.3a5 5 0 0 1-.3-.5l-.1-.3h.8a24 24 0 0 1 2.3 2.2v.6l-.2.3-.1-.1-.5-.3a51 51 0 0 1-1-1l-.4-.5ZM170 71l-.3.5v.3c-.2.5-.4 1 .3 1.2.9.2 1-.6 1.3-1.3.2-.7.2-1.3-.5-1.4-.2 0-.4.3-.7.7ZM183.7 80l-.6-.7-.9 1 .2.1.4.2.7-.4.2-.1Z"/>
</svg>
